<svg xmlns="http://www.w3.org/2000/svg"><symbol viewBox="0 0 60 60" id="icon_compass"><title>compass</title><g fill="currentColor"><path d="M30 0C13.5 0 0 13.5 0 30s13.5 30 30 30 30-13.5 30-30S46.5 0 30 0zm1 58v-3c0-.6-.4-1-1-1s-1 .4-1 1v3C14.4 57.5 2.5 45.6 2 31h3c.6 0 1-.4 1-1s-.4-1-1-1H2C2.5 14.4 14.4 2.5 29 2v3c0 .6.4 1 1 1s1-.4 1-1V2c14.6.5 26.5 12.3 27 27h-3c-.6 0-1 .4-1 1s.4 1 1 1h3c-.5 14.6-12.4 26.5-27 27z"/><path d="M12.9 47.1l21.3-12.8L47 13 25.7 25.7 12.9 47.1zm14.3-19.9l5.6 5.6-14 8.4 8.4-14z"/></g></symbol><symbol viewBox="0 0 60 60" id="icon_location"><title>location</title><g fill="currentColor"><path d="M30 .2C18.4.2 9 9.6 9 21.1c0 3.1.7 6.2 2 8.9 6.3 14.4 18.1 28.5 18.2 28.6l.8.9.8-.9c.1-.1 11.9-14.2 18.2-28.6 1.4-2.8 2-5.9 2-8.9C51 9.6 41.6.2 30 .2zm17.1 29c-5.2 12-14.4 23.9-17.1 27.2-2.7-3.3-11.9-15.2-17.2-27.2-1.2-2.5-1.8-5.2-1.8-8.1 0-10.4 8.5-18.9 19-18.9s19 8.5 19 18.9c0 2.8-.6 5.5-1.9 8.1z"/><path d="M30 9.8c-6.1 0-11 4.9-11 11s4.9 11 11 11 11-4.9 11-11c0-6-4.9-11-11-11zm0 20c-5 0-9-4-9-9s4-9 9-9 9 4 9 9-4 9-9 9z"/></g></symbol><symbol viewBox="0 0 60 60" id="icon_time"><title>time</title><g fill="currentColor"><path d="M30 0C13.5 0 0 13.5 0 30s13.5 30 30 30 30-13.5 30-30S46.5 0 30 0zm0 58C14.6 58 2 45.4 2 30S14.6 2 30 2s28 12.6 28 28-12.6 28-28 28z"/><path d="M31 26.1V6c0-.6-.4-1-1-1s-1 .4-1 1v20.1c-1.7.4-3 2-3 3.9 0 .9.3 1.7.7 2.3l-8.5 10c-.4.4-.3 1.1.1 1.4.2.2.4.2.6.2.3 0 .6-.1.8-.4l8.5-10.1c.5.3 1.1.4 1.7.4 2.2 0 4-1.8 4-4 .1-1.7-1.2-3.2-2.9-3.7z"/></g></symbol></svg>