<svg xmlns="http://www.w3.org/2000/svg"><symbol viewBox="0 0 60 60" id="icon_compass"><title>compass</title><g fill="currentColor"><path d="M30 0C13.5 0 0 13.5 0 30s13.5 30 30 30 30-13.5 30-30S46.5 0 30 0zm1 58v-3c0-.6-.4-1-1-1s-1 .4-1 1v3C14.4 57.5 2.5 45.6 2 31h3c.6 0 1-.4 1-1s-.4-1-1-1H2C2.5 14.4 14.4 2.5 29 2v3c0 .6.4 1 1 1s1-.4 1-1V2c14.6.5 26.5 12.3 27 27h-3c-.6 0-1 .4-1 1s.4 1 1 1h3c-.5 14.6-12.4 26.5-27 27z"/><path d="M12.9 47.1l21.3-12.8L47 13 25.7 25.7 12.9 47.1zm14.3-19.9l5.6 5.6-14 8.4 8.4-14z"/></g></symbol><symbol viewBox="0 0 177 147" id="icon_copywriting"><title>copywriting</title><path fill="none" stroke="#EEF9FF" stroke-width=".129" stroke-miterlimit="10" stroke-dasharray="0.8103,0.8103" d="M82.9 24.8c0 10.1-8.2 18.3-18.3 18.3s-18.3-8.2-18.3-18.3c0-10.1 8.2-18.3 18.3-18.3s18.3 8.2 18.3 18.3z"/><path fill="none" stroke="#EEF9FF" stroke-width=".194" stroke-miterlimit="10" stroke-dasharray="0.5064,0.5064" d="M76.1 24.8c0 6.3-5.1 11.4-11.4 11.4-6.3 0-11.4-5.1-11.4-11.4 0-6.3 5.1-11.5 11.4-11.5 6.3 0 11.4 5.2 11.4 11.5z"/><path fill="none" stroke="#EEF9FF" stroke-width=".064" stroke-miterlimit="10" stroke-dasharray="1.0129,1.0129" d="M87.5 24.8c0 12.6-10.2 22.9-22.9 22.9-12.6 0-22.9-10.2-22.9-22.9S52 1.9 64.6 1.9c12.7 0 22.9 10.2 22.9 22.9z"/><path fill="#C2E5E1" d="M63.3 43.8l-.6-4.4-1.3.2c-.4.1-.9 0-1.3-.3-.5-.4-.9-1-1-1.8l-2.7-18.3.9-.1L60 37.4c.1.5.3.9.6 1.2.1.1.4.2.6.2l2.3-.3.5 3.8 4-2.7.9-1.9 4.2-.6c.2 0 .4-.2.5-.3.2-.3.3-.8.3-1.3l-1-6.6.1-.1 9-19.9-.8-.4L77 6.4l-2.5 5.5.1.1-.1.4-3 6.7-.7-4.7c-.1-.8-.7-1.5-1.2-1.3l-11.8 1.8c-.4.1-.7.4-.8.9l-.1.6-1.4-.7.4-.8.4.2c.3-.6.8-1 1.4-1.1l11.8-1.8c1.1-.2 2.1.8 2.3 2.1l.2 1.5 1.5-3.3-.2-.1 3-6.6c.2-.3.6-.4 1.1-.2l4.2 1.9c1.3.6 1.4.8 1.4 1v.1l-.1.2-9 20 .9 6.4c.1.7 0 1.5-.4 2-.3.4-.7.6-1.1.7l-3.7.5-.8 1.7-5.5 3.7z"/><path fill="#03384D" d="M73.2 37.4l-11.8 1.8c-.8.1-1.6-.7-1.8-1.7l-3.1-21c-.2-1.1.4-2 1.2-2.2l11.8-1.8c.8-.1 1.6.7 1.8 1.7l3.1 21c.1 1.1-.4 2.1-1.2 2.2z"/><path fill="#20669C" d="M72.6 34.9l-11.4 1.6-2.9-19.6 11.4-1.7"/><path opacity=".26" fill="#FFF2D1" stroke="#FFF" stroke-width=".032" stroke-miterlimit="10" d="M69.5 14.3l-9.1 22.4-3.1-20.6z"/><path fill="#FFF1CC" d="M67.6 36.9c.1.4-.1.7-.4.7-.3 0-.6-.2-.6-.6-.1-.4.1-.7.4-.7.2 0 .5.3.6.6zM65.5 14.5c0 .2-.1.3-.2.3l-3 .4c-.1 0-.3-.1-.3-.3 0-.2.1-.3.2-.3l3-.4c.2.1.3.2.3.3z"/><path fill="#FFF" d="M63.8 26.2c.1.4-.2.7-.6.8-.4.1-.7-.2-.8-.6-.1-.4.2-.7.6-.8.4 0 .8.2.8.6zM68.1 23.6c.1.6-.3 1.1-.9 1.2-.6.1-1.1-.3-1.2-.9-.1-.6.3-1.1.9-1.2.6 0 1.1.4 1.2.9zM68.8 27.7c.1.6-.3 1.1-.9 1.2-.6.1-1.1-.3-1.2-.9-.1-.6.3-1.1.9-1.2.6 0 1.2.4 1.2.9z"/><path fill="none" stroke="#FFF" stroke-width=".032" stroke-miterlimit="10" d="M63.1 26.3l3.9-2.5-3.9 2.5zM63.1 26.3l4.7 1.6-4.7-1.6z"/><g fill="none" stroke="#FFEDBF" stroke-miterlimit="10"><path stroke-width=".115" d="M60.3 19.1l3.5-.5-3.5.5z"/><path stroke-width=".095" d="M63.1 33.9l5.2-.8-5.2.8zM62.8 31.7l6.7-1-6.7 1zM64.6 18.5l.9-.1-.9.1zM66.5 18.2l1.2-.2-1.2.2zM60.7 20.6l4.5-.7-4.5.7zM66 19.8l1.8-.3-1.8.3z"/></g><g><path fill="#F9CB3B" d="M62.9 37.3L76.7 6.8c.2-.4.9-.5 1.6-.2l3 1.4c.7.3 1.1.9.9 1.4L68.4 39.8l-5.5-2.5z"/><path fill="#E3B836" d="M62.7 37.3L76.5 6.7c.2-.4.7-.7 1.1-.5l1.7.8c.4.2.5.7.3 1.1L65.9 38.7l-3.2-1.4z"/><path fill="#004F6B" d="M81.3 7.9l-2-.9-1-.4-.7-.3c-.4-.3-.7-.3-.8-.2L74 12.2l.2.1 2.9 1.3 2.5 1.2 2.8-6.2c.1-.1-.4-.4-1.1-.7z"/><path fill="#002E3F" d="M79.2 6.9l-1.1-.5-.5-.2-.5-.2c-.2-.1-.4-.1-.5 0l-2.8 6.2.1.1 1.6.7 1.4.6 2.8-6.2c.2-.1-.1-.3-.5-.5z"/><path fill="#E8A700" d="M63.7 43l-1-5.7 5.7 2.5"/><path fill="#FFF" d="M63.7 43l1.9-1.3-2.2-.7"/></g><g><path fill="none" stroke="#EEF9FF" stroke-width=".129" stroke-miterlimit="10" stroke-dasharray="0.8103,0.8103" d="M139.4 24.1c0 9.7-7.9 17.5-17.5 17.5-9.7 0-17.6-7.9-17.6-17.5 0-9.7 7.9-17.6 17.6-17.6 9.6 0 17.5 7.9 17.5 17.6z"/><path fill="none" stroke="#EEF9FF" stroke-width=".129" stroke-miterlimit="10" stroke-dasharray="0.8103,0.8103" d="M132.8 24.1c0 6.1-4.9 11-11 11s-11-4.9-11-11 4.9-11 11-11 11 4.9 11 11z"/><path fill="none" stroke="#EEF9FF" stroke-width=".129" stroke-miterlimit="10" stroke-dasharray="0.8103,0.8103" d="M143.7 24.1c0 12.1-9.8 21.9-21.9 21.9-12.1 0-21.9-9.8-21.9-21.9 0-12.1 9.8-21.9 21.9-21.9 12.1 0 21.9 9.8 21.9 21.9z"/><g><path fill="none" stroke="#FFF" stroke-width=".412" d="M117 17.6c-3.6 2.9-4.1 8.2-1.2 11.8 2.9 3.6 8.2 4.1 11.8 1.2 3.6-2.9 4.1-8.2 1.2-11.8-2.9-3.6-8.2-4.1-11.8-1.2z"/><path fill="none" stroke="#002E3F" stroke-width=".146" d="M117 17.6c-3.6 2.9-4.1 8.2-1.2 11.8 2.9 3.6 8.2 4.1 11.8 1.2 3.6-2.9 4.1-8.2 1.2-11.8-2.9-3.6-8.2-4.1-11.8-1.2z"/><path opacity=".61" fill="#769FA5" d="M117.6 18.3c-3.2 2.6-3.7 7.3-1.1 10.5s7.3 3.7 10.5 1.1 3.7-7.3 1.1-10.4c-2.6-3.3-7.3-3.8-10.5-1.2z"/><path fill="#FFF" d="M119.2 37.2c-.1.5.6 1 1.4 1.1.8.1 1.5-.3 1.6-.8l.5-5.2c.1-.5-.6-1-1.4-1.1-.8-.1-1.5.3-1.6.8l-.5 5.2z"/><path fill="#20669C" d="M117.2 49.7c-.1 1 .8 1.9 2 2.1 1.2.1 2.3-.6 2.4-1.6l1-9.9c.1-1-.8-1.9-2-2.1-1.2-.1-2.3.6-2.4 1.6l-1 9.9z"/><path fill="none" stroke="#FFB700" stroke-width=".041" d="M120.6 38.2l.6-5.8-.6 5.8z"/><path opacity=".56" fill="#FFF" d="M118.2 50.7c-.2 0-.1-2.6.2-5.8.4-3.2.9-5.7 1.1-5.7.2 0 .1 2.6-.2 5.8-.4 3.1-.9 5.7-1.1 5.7z"/></g></g><g><circle fill="none" stroke="#EEF9FF" stroke-width=".129" stroke-miterlimit="10" stroke-dasharray="0.8103,0.8103" cx="151" cy="71" r="18.3"/><circle fill="none" stroke="#EEF9FF" stroke-width=".129" stroke-miterlimit="10" stroke-dasharray="0.8103,0.8103" cx="151" cy="71" r="11.4"/><path fill="none" stroke="#EEF9FF" stroke-width=".129" stroke-miterlimit="10" stroke-dasharray="0.8103,0.8103" d="M173.9 71c0 12.6-10.2 22.9-22.9 22.9-12.6 0-22.9-10.2-22.9-22.9 0-12.6 10.2-22.9 22.9-22.9 12.7.1 22.9 10.3 22.9 22.9z"/><g><path fill="#F9CB3B" d="M162.7 70.3s0-.1 0 0c0-.1 0-.1 0 0v-.1-.4-.1-.1c0-.3-.1-.6-.1-.8 0 0 0-.2-.1-.3v-.1c-.1-.3-.1-.5-.1-.5-.1-.3-.2-.7-.3-.9 0-.1-.1-.2-.1-.3 0-.1-.1-.2-.1-.3v-.1-.1c-.1-.3-.3-.7-.5-1.1 0-.1-.1-.1-.1-.2v-.1-.1c-.2-.4-.5-.8-.8-1.2-.2-.2-.4-.5-.6-.7l-.3-.3-.4-.4c-.3-.3-.8-.7-1.1-.9-.3-.2-.7-.5-1.1-.7-.1-.1-.3-.2-.4-.2-.2-.1-.5-.2-.7-.3h-.1c-.2-.1-.5-.2-.7-.3-.1 0-.1 0-.2-.1-.2 0-.3-.1-.4-.1-.1 0-.2-.1-.3-.1-.1 0-.2 0-.3-.1-.1 0-.2 0-.3-.1-.2 0-.4-.1-.6-.1h-.7-.2H150.9h-1.1c-.1 0-.2 0-.3.1h-.4c-.2 0-.4.1-.6.1-.1 0-.2 0-.3.1-.2.1-.5.2-.7.2-.4.1-.8.3-1.2.5l-.6.3c-.2.1-.3.2-.5.3-.1.1-.3.2-.4.3-.1.1-.2.1-.3.2-.2.1-.4.3-.5.4-.1.1-.3.2-.4.3l-.2.2c-.1.1-.3.2-.4.4-.1.1-.3.3-.4.5-.1.2-.3.4-.4.5-.1.1-.4.5-.7 1-.1.1-.1.2-.2.3-.1.3-.2.5-.3.7-.1.2-.2.5-.3.7v.1c-.1.2-.2.5-.2.8 0 .1-.1.3-.1.4 0 .1-.1.3-.1.5s-.1.6-.1.8V72.7c0 .1.1.3.1.4.1.2.1.4.2.5.1.1.1.3.2.5.1.1.1.3.2.4 0 0 .1.3.4.8v.1c.1.1.1.2.2.3.1.2.2.4.3.7v.1s0 .1.1.1v.1s0 .1.1.1c.1.2.2.3.2.5 0 .1.1.2.1.3V77.9c.1.2.1.3.2.4.1.2.2.4.3.7 0 .1.1.2.1.3 0 .1.1.1.1.2s.1.2.1.3v.2c.1.2.2.6.3.9v.4c.1.4.2.7.3 1v.1c0 .1 0 .2.1.3.1.3.1.6.2 1V84c0 .2.1.5.1.7v.8c0 .2 0 .5.1.7V88.5c0 .1 0 .1.1.2 0 .1.1.1.1.2 0 0 0 .1.1.1 0 0 0 .1.1.1l.1.1.1.1.1.1c.1.1.2.1.3.2h.1l9.6.2c.1-.1.2-.1.3-.2 0 0 .1-.1.2-.1l.1-.1.1-.1s0-.1.1-.1c0 0 0-.1.1-.1 0 0 0-.1.1-.1 0-.1.1-.2.1-.2 0-.1.1-.2.1-.2v-.2-.1-.1-.5-.3-.1c0-.3 0-.5.1-.7 0-.2.1-.5.1-.7v-.2c0-.2.1-.4.1-.5 0-.2.1-.5.2-.8.1-.6.3-1.1.4-1.4l.3-.9V82v-.1c0-.1.1-.2.1-.3v-.1-.1-.1-.1s0-.1.1-.2.1-.3.1-.4c0-.1.1-.2.1-.3v-.1s0-.1.1-.1c0-.1.1-.1.1-.2.2-.3.2-.5.4-.8.1-.2.2-.4.3-.7.1-.1.1-.2.2-.3.1-.1.1-.3.2-.4 0-.1.1-.1.1-.2s.1-.2.1-.3c.2-.3.3-.5.4-.7.3-.4.4-.7.5-.8.1-.1.2-.3.2-.4.1-.1.2-.3.2-.4.1-.1.1-.3.2-.4.1-.1.1-.3.2-.5l.3-.9c0-.1.1-.3.1-.5 0-.1.1-.3.1-.5 0-.1.1-.3.1-.5s0-.3.1-.5v-.2-.3-.5c1.1.5 1.1.3 1.1.2z"/><path fill="#E3B836" d="M156.6 89.4c0-.1 0-.2.1-.2v-.1-.1-.5-.3-.1c0-.3 0-.5.1-.7 0-.2.1-.5.1-.7v-.2c0-.2.1-.4.1-.5 0-.2.1-.5.2-.8.1-.6.3-1.1.4-1.4l.3-.9v-.1-.1c0-.1.1-.2.1-.3v-.1-.1-.1-.1s0-.1.1-.2.1-.3.1-.4c0-.1.1-.2.1-.3V81s0-.1.1-.1c0-.1.1-.1.1-.2.2-.3.2-.5.4-.8.1-.2.2-.4.3-.7.1-.1.1-.2.2-.3.1-.1.1-.3.2-.4 0-.1.1-.1.1-.2s.1-.2.1-.3c.2-.3.3-.5.4-.7.3-.4.4-.7.5-.8.1-.1.2-.3.2-.4.1-.1.2-.3.2-.4.1-.1.1-.3.2-.4.1-.1.1-.3.2-.5l.3-.9c0-.1.1-.3.1-.5 0-.1.1-.3.1-.5 0-.1.1-.3.1-.5s0-.3.1-.5v-.2-.3-.5-.4-.4-.1-.1c0-.3-.1-.6-.1-.8 0 0 0-.2-.1-.3v-.1c-.1-.3-.1-.5-.1-.5-.1-.3-.2-.7-.3-.9 0-.1-.1-.2-.1-.3 0-.1-.1-.2-.1-.3v-.1-.1c-.1-.3-.3-.7-.5-1.1 0-.1-.1-.1-.1-.2v-.1-.1c-.2-.4-.5-.8-.8-1.2-.2-.2-.4-.5-.6-.7l-.3-.3-.4-.4c-.3-.3-.8-.7-1.1-.9-.3-.2-.7-.5-1.1-.7-.1-.1-.3-.2-.4-.2-.2-.1-.5-.2-.7-.3h-.1c-.2-.1-.5-.2-.7-.3-.1 0-.1 0-.2-.1-.2 0-.3-.1-.4-.1-.1 0-.2-.1-.3-.1-.1 0-.2 0-.3-.1-.1 0-.2 0-.3-.1-.2 0-.4-.1-.6-.1h-.7-.2-.1l-1.2 32.1 5.1.1c.1-.1.2-.1.3-.2 0 0 .1-.1.2-.1l.1-.1.1-.1s0-.1.1-.1c0 0 0-.1.1-.1 0 0 0-.1.1-.1 0-.1.1-.2.1-.2.1-1 .1-1.1.1-1.2z"/><path fill="#0E3757" stroke="#FFF" stroke-width=".024" d="M154.7 91.2l-8-.1c-.7 0-1.3.5-1.3 1.1 0 .6.6 1.1 1.3 1.1l8 .1c.7 0 1.3-.5 1.3-1.1 0-.6-.6-1.1-1.3-1.1zM154.7 93.5l-8-.1c-.7 0-1.3.5-1.3 1.1 0 .6.6 1.1 1.3 1.1l8 .1c.7 0 1.3-.5 1.3-1.1 0-.6-.6-1.1-1.3-1.1zM149.2 97.5c.4.4.9.7 1.5.7s1.1-.2 1.5-.7c.9-.3 1.7-.8 2.4-1.5l-7.9-.1c.6.7 1.5 1.3 2.5 1.6z"/><g opacity=".8"><path fill="none" stroke="#FFF" stroke-width=".018" stroke-miterlimit="10" d="M153 84.5l.7-9.2c.1-1.2.9-2 1.9-2l2.7.2-5.3 11z"/><path opacity=".75" fill="#FFF" d="M160.2 73.8c-.1.8-.7 1.4-1.5 1.3-.8-.1-1.4-.7-1.3-1.5.1-.8.7-1.4 1.5-1.3.8.1 1.4.7 1.3 1.5z"/><path opacity=".75" fill="none" stroke="#FFF" stroke-width=".009" stroke-miterlimit="10" d="M160.7 73.9c-.1 1-1 1.8-2 1.8-1-.1-1.8-1-1.8-2 .1-1 1-1.8 2-1.8 1.1 0 1.9.9 1.8 2z"/><g><path opacity=".75" fill="#FFF" d="M154.3 84.8c0 .6-.6 1.1-1.2 1.1s-1.1-.6-1.1-1.2.6-1.1 1.2-1.1c.7 0 1.2.5 1.1 1.2z"/><path opacity=".75" fill="none" stroke="#FFF" stroke-width=".007" stroke-miterlimit="10" d="M154.7 84.8c-.1.8-.8 1.5-1.6 1.4-.8-.1-1.5-.8-1.4-1.6.1-.8.8-1.5 1.6-1.4.8 0 1.4.8 1.4 1.6z"/></g></g><g opacity=".8"><path opacity=".8" fill="none" stroke="#FFF" stroke-width=".036" stroke-miterlimit="10" d="M148.5 84.6l.7-15.1c0-1.2-.7-2.1-1.7-2.1l-2.7-.1 3.7 17.3z"/><path opacity=".75" fill="#FFF" d="M142.7 67.4c0 .8.6 1.5 1.4 1.5.8 0 1.5-.6 1.5-1.4 0-.8-.6-1.4-1.4-1.5-.8 0-1.4.6-1.5 1.4z"/><path opacity=".75" fill="none" stroke="#FFF" stroke-width=".009" stroke-miterlimit="10" d="M142.3 67.4c0 1.1.8 1.9 1.8 2 1 0 1.9-.8 1.9-1.9 0-1-.8-1.9-1.8-1.9-1-.1-1.9.7-1.9 1.8z"/><g><path opacity=".75" fill="#FFF" d="M147.1 84.7c0 .6.5 1.2 1.1 1.2.6 0 1.2-.5 1.2-1.1 0-.6-.5-1.2-1.1-1.2-.6 0-1.1.5-1.2 1.1z"/><path opacity=".75" fill="none" stroke="#FFF" stroke-width=".007" stroke-miterlimit="10" d="M146.8 84.7c0 .8.6 1.5 1.5 1.6.8 0 1.5-.6 1.6-1.5 0-.8-.6-1.5-1.5-1.6-.9 0-1.6.6-1.6 1.5z"/></g></g></g></g><g><circle fill="none" stroke="#EEF9FF" stroke-width=".123" stroke-miterlimit="10" stroke-dasharray="0.7721,0.7721" cx="125.5" cy="123.8" r="17.5"/><path fill="none" stroke="#EEF9FF" stroke-width=".123" stroke-miterlimit="10" stroke-dasharray="0.7721,0.7721" d="M136.4 123.8c0 6-4.9 10.9-10.9 10.9s-10.9-4.9-10.9-10.9 4.9-10.9 10.9-10.9c6.1 0 10.9 4.9 10.9 10.9z"/><path fill="none" stroke="#EEF9FF" stroke-width=".123" stroke-miterlimit="10" stroke-dasharray="0.7721,0.7721" d="M147.4 123.8c0 12-9.8 21.8-21.8 21.8s-21.8-9.8-21.8-21.8 9.8-21.8 21.8-21.8 21.8 9.7 21.8 21.8z"/><g><path fill="#2D8ED9" d="M141.2 119.1c0-3.6-3.2-6.5-7.2-6.5h-17.5c-4 0-7.2 2.9-7.2 6.5v4.6h31.8v-4.6z"/><path fill="#20669C" d="M109.4 123.7v5.7c0 3.6 3.2 6.6 7.2 6.6H134c4 0 7.2-2.9 7.2-6.6v-5.7h-31.8z"/></g><path fill="#E6F5FF" d="M122.8 129.4l-.1-5.4-.2-5.4 4.7 2.5 4.8 2.6-4.6 2.8"/></g><g><path fill="none" stroke="#C2E5E1" stroke-width=".168" stroke-miterlimit="10" d="M89.4 109.3l-8.7-24.4-8.1-22.7c-.9-2.5-2.9-4-4.5-3.4l-5.5 2c-1.6.6-2.3 3.1-1.4 5.5l.1.4-29 23.6-2.8 1c-1-1.8-2.2-2.8-4.6-2L8.7 95c-2.8 1-4.5 3.8-4.2 6.5h-.1c-.6.2-1.1.5-1.5.9l-.4.4-.5.5v.1c-.6 1-.8 2.2-.4 3.4l3.8 10.6c.4 1.2 1.3 2 2.4 2.4v.1h.3c.8.2 1.8.2 2.7-.1l.2.7c.6 1.8 3.8 2.3 7 1.1l.5-.2c0 .1 0 .2.1.2l6.4 17.9c1.3 3.6 3.5 6.1 4.9 5.6l7.2-2.6c.8-.3-.4-3.2-1.9-6.3-1.6-3.4-3.1-9.1-3.5-12.6-.2-2.2-.5-4.7-1-6.5l3.5-1.3c2.9-1 3.1-2.4 2.6-4l2.6-.9h37.4l.9 2.4c.4 1.2 2 1.8 3.5 1.4.1 0 .2 0 .3-.1l5.5-2c.1 0 .2-.1.3-.1 1.7-.5 2.5-1.9 2.1-3.2z"/><path fill="#C3AE3E" d="M81.1 105c.9 2.4-.4 5.1-2.9 6H39.5l-9.6 3.4c-2.5.9-5.1-.4-6-2.9l-4.2-11.8c-.9-2.4.4-5.1 2.9-6l9.6-3.4 30-24.4c2.5-.9 5.1.4 6 2.9L81.1 105z"/><path fill="#F9DD4F" d="M70.1 73.9c-.9-2.5-3.6-3.7-6-2.9l-30 24.4-9.6 3.4c-2.5.9-3.7 3.6-2.9 6l1.3 3.7 52.8-18.8-5.6-15.8z"/><path fill="#FFB700" d="M23.1 111.1c.8 2.1 1.1 3.9-1.1 4.7l-11.1 3.9c-2.2.8-4.7-.3-5.4-2.4l-3.8-10.6c-.8-2.1.4-4.5 2.7-5.3l11.1-3.9c2.2-.8 3.1.9 3.8 3l3.8 10.6z"/><path fill="#B8A749" d="M29.8 114.7c1.1 1.2 1.7 5.4 2 9 .4 3.5 1.9 9.2 3.5 12.6 1.5 3.1 2.7 6 1.9 6.3l-7.2 2.6c-1.4.5-3.7-2-4.9-5.6l-6.4-17.9c-1.3-3.6-.2-4.4 1.2-4.9l7.2-2.6c1-.3 1.9-.4 2.7.5z"/><path fill="#E6D15B" d="M27.8 125.1c-.7.3-1.3.5-1.2.7l.3 1c.1.2.7.2 1.4-.1l3.6-1.3-.6-1.6-3.5 1.3zM30.8 135.7c-.7.3-1.3.5-1.2.7l.3 1c.1.2.7.2 1.4-.1L35 136l-.6-1.6-3.6 1.3zM28.2 130.8c-.9.3-1.7.6-1.6.8l.3 1c.1.2.9.1 1.8-.2l4.6-1.6-.6-1.6-4.5 1.6z"/><path fill="#3C79A1" d="M36 109c1.1 3.1 1.7 5.7-1.6 6.9l-16.2 5.7c-3.3 1.2-6.8-.4-7.9-3.5l-5.5-15.4c-1.1-3.1.6-6.6 3.9-7.7l16.2-5.7c3.3-1.2 4.5 1.2 5.6 4.3L36 109z"/><path fill="#29546F" d="M36.8 111.4c.6 1.8.8 3.3-2.4 4.5l-16.2 5.7c-3.3 1.2-6.4.7-7-1.1L8 111.6c-.6-1.8 1.5-4.2 4.7-5.3l16.2-5.7c3.3-1.2 4.1.2 4.7 2l3.2 8.8z"/><path fill="#3C79A1" d="M88.6 107.3c.9 2.4.2 4.9-1.4 5.5l-5.5 2c-1.6.6-3.7-.9-4.5-3.4l-16-45.1c-.9-2.4-.2-4.9 1.4-5.5l5.5-2c1.6-.6 3.7.9 4.5 3.4l16 45.1z"/><path fill="#29546F" d="M89.4 109.3c.5 1.3-.5 2.9-2.1 3.5l-5.5 2c-1.6.6-3.3 0-3.8-1.3L69.2 89c-.5-1.3.5-2.9 2.1-3.5l5.5-2c1.6-.6 3.4 0 3.8 1.4l8.8 24.4z"/><path fill="#D45454" d="M9.2 120l-1.2-.2-5.9-16.5.8-.9"/><g opacity=".45"><path fill-rule="evenodd" clip-rule="evenodd" fill="#FFF" d="M105.5 99.8c5.2-16.1-2.4-36.2-16.8-45l2.1-6.5c17.6 10.7 26.8 35.3 20.5 55l-5.8-3.5zm-2.9-1.8l-5.8-3.5c3.4-10.7-1.6-24.2-11.2-30l2.1-6.5c12.8 7.8 19.5 25.7 14.9 40zm-8.7-5.3l-5.8-3.5c1.7-5.4-.8-12.1-5.6-15l2.1-6.5c7.9 4.9 12.1 16.1 9.3 25z"/></g></g></symbol><symbol viewBox="0 0 120 110" id="icon_inf"><title>inf</title><path fill="#9C9C9C" d="M43.6 106.7V89.4c0-3.5 2.8-6.3 6.3-6.3H70c3.5 0 6.3 2.8 6.3 6.3v17.3H43.6z"/><path fill="#E3E3E3" d="M88 108.2c0 .3-4.8.5-10.8.5H42.8c-6 0-10.8-.2-10.8-.5v-1.5c0-.3 4.8-.5 10.8-.5h34.4c5.9 0 10.8.2 10.8.5v1.5zM108.2 99.3H11.8c-2.3 0-4.2-1.9-4.2-4.2V33.8c0-2.3 1.9-4.2 4.2-4.2h96.4c2.3 0 4.2 1.9 4.2 4.2v61.3c0 2.3-1.9 4.2-4.2 4.2z"/><path fill="#F2F2F2" stroke="#1F454F" stroke-width=".452" d="M106.7 29.6H13.3c-2.2 0-4.1 1.7-4.1 3.9v56.4h101.6V33.4c0-2.1-1.8-3.8-4.1-3.8z"/><path fill="#B8B8B8" d="M97.8 83H27c-2.3 0-4.2-1.9-4.2-4.2V8c0-2.3 1.9-4.2 4.2-4.2h70.8c2.3 0 4.2 1.9 4.2 4.2v70.8c0 2.3-1.8 4.2-4.2 4.2z"/><path fill="#FFF" stroke="#E5E5E5" stroke-width=".057" d="M96.2 80.5H25.4c-2.3 0-4.2-1.9-4.2-4.2V5.5c0-2.3 1.9-4.2 4.2-4.2h70.8c2.3 0 4.2 1.9 4.2 4.2v70.8c0 2.3-1.9 4.2-4.2 4.2z"/><path fill="#002E3F" d="M96.2 1.3H25.4c-2.3 0-4.2 1.9-4.2 4.2v7.2h79.2V5.5c0-2.3-1.9-4.2-4.2-4.2z"/><path fill="#D71B29" stroke="#FFF" stroke-width=".057" d="M27.3 6.9c0 .7-.6 1.4-1.3 1.4-.7 0-1.3-.6-1.3-1.4 0-.7.6-1.3 1.3-1.3.7-.1 1.3.5 1.3 1.3z"/><path fill="#FFD400" stroke="#FFF" stroke-width=".057" d="M31.3 6.9c0 .7-.6 1.4-1.4 1.4-.7 0-1.3-.6-1.3-1.4 0-.7.6-1.3 1.3-1.3.8-.1 1.4.5 1.4 1.3z"/><path fill="#BF0" stroke="#FFF" stroke-width=".057" d="M35.4 6.9c0 .7-.6 1.4-1.3 1.4-.7 0-1.3-.6-1.3-1.4 0-.7.6-1.3 1.3-1.3.7-.1 1.3.5 1.3 1.3z"/><path fill="none" stroke="#FFF" stroke-width=".359" d="M51.4 6.9h18.7-18.7z"/><path fill="#769FA5" d="M25.6 19.1h21v21h-21z"/><path fill="#DC7A61" d="M50.8 19.1h21v21h-21z"/><path fill="#002E3F" d="M75.9 19.1h21v21h-21z"/><path fill="gray" d="M25.6 35h21v5.1h-21zM50.8 35h21v5.1h-21zM75.9 35h21v5.1h-21z"/><path fill="none" stroke="#D9D9D9" stroke-width=".174" d="M25.6 49.9h71.3-71.3z"/><path fill="#D9D9D9" d="M24.6 59.7h72.3v12.8H24.6z"/><path fill="none" stroke="#FFF" stroke-width=".287" d="M45.9 66.1h29.8-29.8z"/><path fill="none" stroke="#FFF" stroke-width=".172" d="M31.5 37.5h9.1-9.1zM56.7 37.5h9.2-9.2zM81.8 37.5H91h-9.2z"/><path fill="#EBEBEB" d="M63.3 28.7c0 1.1-.9 2-2 2s-2-.9-2-2 .9-2 2-2 2 .9 2 2zM38.1 28.7c0 1.1-.9 2-2 2s-2-.9-2-2 .9-2 2-2 2 .9 2 2zM88.5 28.7c0 1.1-.9 2-2 2s-2-.9-2-2 .9-2 2-2c1 0 2 .9 2 2z"/></symbol><symbol viewBox="0 0 60 60" id="icon_location"><title>location</title><g fill="currentColor"><path d="M30 .2C18.4.2 9 9.6 9 21.1c0 3.1.7 6.2 2 8.9 6.3 14.4 18.1 28.5 18.2 28.6l.8.9.8-.9c.1-.1 11.9-14.2 18.2-28.6 1.4-2.8 2-5.9 2-8.9C51 9.6 41.6.2 30 .2zm17.1 29c-5.2 12-14.4 23.9-17.1 27.2-2.7-3.3-11.9-15.2-17.2-27.2-1.2-2.5-1.8-5.2-1.8-8.1 0-10.4 8.5-18.9 19-18.9s19 8.5 19 18.9c0 2.8-.6 5.5-1.9 8.1z"/><path d="M30 9.8c-6.1 0-11 4.9-11 11s4.9 11 11 11 11-4.9 11-11c0-6-4.9-11-11-11zm0 20c-5 0-9-4-9-9s4-9 9-9 9 4 9 9-4 9-9 9z"/></g></symbol><symbol viewBox="0 0 14 10" id="icon_mail"><title>mail</title><path fill="currentColor" d="M7 7L5.3 5.5l-5 4.2c.2.2.4.3.7.3h12c.3 0 .5-.1.7-.3l-5-4.2L7 7zM13.7.3c-.2-.2-.4-.3-.7-.3H1C.7 0 .5.1.3.3L7 6 13.7.3zM0 .9v8.3l4.8-4.1L0 .9zm9.2 4.2L14 9.2V.9L9.2 5.1z"/></symbol><symbol viewBox="0 0 6 13" id="icon_phone"><title>phone</title><path fill="currentColor" d="M5.9 12.6c-.1.2-.3.2-.5.2l-2.3.1h-.4c-.1 0-.2-.1-.3-.1h-.1l-.1-.1-.5-.5c-.2-.3-.5-.6-.7-1.1-.2-.5-.5-1.1-.7-1.8C.2 8.5.1 7.7.1 6.7 0 6 0 5.3.1 4.7c.1-.6.2-1.1.3-1.6.1-.5.3-.9.4-1.2.1-.3.2-.6.4-.8.1-.2.3-.4.4-.5l.2-.2s.1-.1.2-.1.2-.1.3-.1L4.6.1c.2 0 .3 0 .4.1.1.1.1.1.1.2v.3l-.5 2.6c0 .1-.1.3-.2.3-.2.2-.3.2-.5.2h-.8H3s-.1 0-.1.1c-.1.2-.2.4-.2.6-.1.2-.1.5-.2.8v1.2c0 .5.1.9.2 1.2.1.3.2.6.2.8.1.3.2.4.2.5l.1.1h.2l1-.1c.2 0 .4.1.5.2.1.2.2.3.2.4l.8 2.5c.1.2.1.3 0 .5z"/></symbol><symbol viewBox="0 0 175 105" id="icon_support"><title>support</title><path fill="#828282" d="M50.9 91V71.2c0-4 3.2-7.2 7.2-7.2h23.1c4 0 7.2 3.2 7.2 7.2V91H50.9z"/><path fill="#E3E3E3" d="M101.9 92.7c0 .3-5.5.6-12.4.6H49.9c-6.8 0-12.4-.3-12.4-.6V91c0-.3 5.5-.6 12.4-.6h39.6c6.8 0 12.4.3 12.4.6v1.7zM125.1 82.5H14.3c-2.7 0-4.8-2.2-4.8-4.8V7.2c0-2.7 2.2-4.8 4.8-4.8H125c2.7 0 4.8 2.2 4.8 4.8v70.5c.1 2.6-2.1 4.8-4.7 4.8z"/><path fill="#FFF" d="M123.4 2.4H16c-2.6 0-4.7 2-4.7 4.4v64.8h116.8V6.8c0-2.4-2.1-4.4-4.7-4.4z"/><path fill="#09444D" d="M130 73.5H9.4V6.8C9.4 3.3 12.3.5 16 .5h107.4c3.6 0 6.6 2.8 6.6 6.3v66.7zM13.2 69.7h112.9V6.8c0-1.4-1.2-2.5-2.8-2.5H16c-1.5 0-2.8 1.1-2.8 2.5v62.9z"/><g><path fill="#FFB700" d="M20.2 32.4h9.9v37.2h-9.9zM35 47.8h9.9v21.8H35zM49.7 37h9.9v32.6h-9.9zM64.5 32.4h9.9v37.2h-9.9zM79.2 44.1h9.9v25.5h-9.9zM94 27.8h9.9v41.8H94zM108.7 23.7h9.9v45.8h-9.9zM55.3 10.3h9.1v2.1h-9.1zM20.6 10.3h28.9v2.1H20.6z"/><path fill="#D71B29" d="M14.7 71l-2.9-2.9 22.7-22.8 20.2 9.2 24.2-12.6 19.6 4.5 26-19.2 2.5 3.4-27.6 20.3-19.9-4.6-24.7 12.8-19.4-8.8" opacity=".32"/><path fill="none" stroke="#BAB9B9" stroke-width=".191" d="M20.6 18.9h29.1-29.1zM25.4 24.1h29.5-29.5zM58.6 24.1h7.7-7.7zM55.3 18.9h17.2-17.2z"/><path fill="#FFB700" d="M96.6 12.4c0 1.4-1.2 2.6-2.6 2.6-1.4 0-2.6-1.2-2.6-2.6s1.2-2.6 2.6-2.6c1.4 0 2.6 1.1 2.6 2.6z"/><circle fill="#D74B56" cx="35.2" cy="48.7" r="3.5"/><circle fill="#D74B56" cx="79.2" cy="44.1" r="3.5"/><circle fill="#D74B56" cx="118.6" cy="33.4" r="3.5"/><path fill="#002E3F" d="M106.9 12.4c0 1.4-1.2 2.6-2.6 2.6-1.4 0-2.6-1.2-2.6-2.6s1.2-2.6 2.6-2.6c1.5 0 2.6 1.1 2.6 2.6z"/><circle fill="#FFB700" cx="114.2" cy="12.4" r="2.6"/></g><g><path fill="#083940" d="M160.4 104.5h-41.7c-2.9 0-5.2-2.3-5.2-5.2V43.8c0-2.9 2.3-5.2 5.2-5.2h41.7c2.9 0 5.2 2.3 5.2 5.2v55.5c0 2.9-2.4 5.2-5.2 5.2z"/><path fill="#FFB700" d="M119.5 45.6h40.1v52h-40.1z"/><path fill="#FFF1CC" d="M141.3 101.1c0 1-.8 1.8-1.8 1.8s-1.8-.8-1.8-1.8.8-1.8 1.8-1.8 1.8.8 1.8 1.8zM145.7 42.2c0 .4-.4.8-.9.8h-10.5c-.5 0-.9-.4-.9-.8s.4-.8.9-.8h10.5c.5 0 .9.4.9.8z"/><path fill="#002E3F" d="M156.6 84.2h-.9c-.5 0-.6-.2-.1-.5l.8-.5c.2-.1.3-.4.2-.6l-.8-1.3c-.1-.2-.4-.3-.6-.2 0 0-.3.2-.8.4-.4.3-.6.1-.3-.3l.5-.8c.1-.2.1-.5-.2-.6l-1.3-.8c-.2-.1-.5-.1-.6.2 0 0-.2.3-.5.8-.3.4-.4.4-.4-.1V79c0-.1 0-.2-.1-.2-.1-.1-.2-.2-.4-.2h-1.5c-.2 0-.4.2-.4.4v.9c0 .5-.2.6-.5.1l-.5-.8c-.1-.2-.4-.3-.6-.2l-1.3.8c-.2.1-.3.4-.2.6l.4.8c.2.4.1.6-.3.3l-.8-.4c-.2-.1-.5 0-.6.2l-.8 1.3c-.1.2 0 .5.2.6 0 0 .3.2.8.5.4.3.4.5-.1.5h-.9c-.2 0-.4.2-.4.4v1.5c0 .2.2.4.4.4h.9s.6.2.1.5l-.8.5c-.2.1-.3.4-.2.6l.8 1.3c.1.2.4.3.6.2 0 0 .3-.2.8-.5.4-.2.6-.1.3.3l-.4.8c-.1.2-.1.5.2.6l1.3.8c.2.1.5.1.6-.2 0 0 .2-.4.5-.8.2-.4.5-.4.5.1v.9c0 .2.1.3.3.4h1.7c.2 0 .4-.2.4-.4v-.9s.2-.6.4-.1l.5.8c.1.2.4.3.6.2l1.3-.8c.2-.1.3-.4.2-.6 0 0-.2-.3-.5-.8-.2-.4-.1-.6.3-.3l.8.5c.2.1.5 0 .6-.2l.8-1.3c.1-.2 0-.5-.2-.6 0 0-.3-.2-.8-.5-.4-.2-.4-.5.1-.5h.9c.2 0 .4-.2.4-.4v-1.5c.1-.2-.1-.4-.4-.4zm-6.3 4.2c-1.7 0-3-1.4-3-3 0-1.7 1.4-3 3-3 1.7 0 3 1.4 3 3 .1 1.7-1.3 3-3 3z"/><path fill="#D71B29" d="M142.9 75.7h-1.4c-.8 0-.9-.3-.2-.7l1.3-.7c.3-.2.4-.6.3-1l-1.2-2.1c-.2-.3-.6-.5-1-.3 0 0-.6.3-1.2.7-.7.4-.9.2-.5-.5l.7-1.2c.2-.3.1-.8-.3-1l-2.1-1.2c-.3-.2-.8-.1-1 .3 0 0-.3.6-.7 1.3-.4.7-.7.6-.7-.2v-1.4c0-.1 0-.3-.1-.4-.1-.2-.3-.3-.6-.3h-2.5c-.4 0-.7.3-.7.7v1.4c0 .8-.3.9-.7.2l-.7-1.3c-.2-.3-.6-.5-1-.3l-2.1 1.2c-.3.2-.5.6-.3 1 0 0 .3.6.7 1.2.4.7.2.9-.5.5l-1.3-.7c-.3-.2-.8-.1-1 .3l-1.2 2.1c-.2.3-.1.8.3 1 0 0 .6.3 1.3.7.7.4.6.7-.2.7h-1.4c-.4 0-.7.3-.7.7v2.5c0 .4.3.7.7.7h1.4c.8 0 .9.3.2.7l-1.3.7c-.3.2-.4.6-.3 1l1.2 2.1c.2.3.6.5 1 .3 0 0 .6-.3 1.3-.7.7-.4.9-.2.5.5l-.7 1.3c-.2.3-.1.8.3 1l2.1 1.2c.3.2.8.1 1-.3 0 0 .3-.6.7-1.3.4-.7.7-.6.7.2v1.4c0 .3.2.6.5.7h2.7c.4 0 .7-.3.7-.7v-1.4c0-.8.3-.9.7-.2l.7 1.3c.2.3.6.5 1 .3l2.1-1.2c.3-.2.4-.6.3-1 0 0-.3-.6-.7-1.3-.4-.7-.2-.9.5-.5l1.2.7c.3.2.8.1 1-.3l1.2-2.1c.2-.3.1-.8-.3-1 0 0-.6-.3-1.3-.7-.7-.4-.6-.7.2-.7h1.4c.4 0 .7-.3.7-.7v-2.5c0-.4-.3-.7-.7-.7zm-10.1 6.8c-2.7 0-4.9-2.2-4.9-4.9s2.2-4.9 4.9-4.9 4.9 2.2 4.9 4.9-2.2 4.9-4.9 4.9z"/><path fill="#FFF" d="M129.5 50.7h21.9v1.6h-21.9z"/><path fill="#FFE7AB" d="M122.7 55.9h10.1v1.6h-10.1zM122.7 60.6h18.7v1.6h-18.7zM143.5 60.6h5.4v1.6h-5.4zM134.7 55.9h5v1.6h-5zM141.4 55.9h7.5v1.6h-7.5z"/></g><g><path fill="none" stroke="#FFF" stroke-width=".563" d="M126 61.3c-7.2-.6-13.6 4.8-14.2 12-.6 7.2 4.8 13.6 12 14.1 7.2.6 13.6-4.8 14.2-12 .6-7.2-4.8-13.5-12-14.1z"/><path fill="none" stroke="#002E3F" stroke-width=".199" d="M126 61.3c-7.2-.6-13.6 4.8-14.2 12-.6 7.2 4.8 13.6 12 14.1 7.2.6 13.6-4.8 14.2-12 .6-7.2-4.8-13.5-12-14.1z"/><path opacity=".61" fill="#769FA5" d="M125.8 62.7c-6.4-.5-12.1 4.3-12.6 10.7-.5 6.4 4.3 12.1 10.7 12.6 6.4.5 12.1-4.3 12.6-10.7.6-6.4-4.2-12-10.7-12.6z"/><path fill="#FFF" d="M107 85.9c-.6.5-.5 1.8.4 2.8.8 1 2 1.4 2.7.8l6.2-5.3c.6-.5.5-1.8-.4-2.8-.8-1-2-1.3-2.7-.8l-6.2 5.3z"/><path fill="#2D2D2D" d="M91.3 97.8c-1.2 1-1.2 3 0 4.5 1.2 1.4 3.2 1.8 4.4.7l11.9-10c1.2-1 1.2-3 0-4.5-1.2-1.4-3.2-1.8-4.4-.7l-11.9 10z"/><path fill="none" stroke="#FFB700" stroke-width=".056" d="M107.6 88.5l7-6-7 6z"/><path opacity=".56" fill="#FFF" d="M91.4 100.1c-.2-.3 2.7-3.1 6.6-6.3 3.9-3.2 7.2-5.5 7.4-5.2.2.3-2.7 3.1-6.6 6.3-3.9 3.1-7.2 5.5-7.4 5.2z"/></g></symbol><symbol viewBox="0 0 60 60" id="icon_time"><title>time</title><g fill="currentColor"><path d="M30 0C13.5 0 0 13.5 0 30s13.5 30 30 30 30-13.5 30-30S46.5 0 30 0zm0 58C14.6 58 2 45.4 2 30S14.6 2 30 2s28 12.6 28 28-12.6 28-28 28z"/><path d="M31 26.1V6c0-.6-.4-1-1-1s-1 .4-1 1v20.1c-1.7.4-3 2-3 3.9 0 .9.3 1.7.7 2.3l-8.5 10c-.4.4-.3 1.1.1 1.4.2.2.4.2.6.2.3 0 .6-.1.8-.4l8.5-10.1c.5.3 1.1.4 1.7.4 2.2 0 4-1.8 4-4 .1-1.7-1.2-3.2-2.9-3.7z"/></g></symbol><symbol viewBox="0 0 100 100" id="icon_vk"><title>vk</title><path fill-rule="evenodd" clip-rule="evenodd" fill="currentColor" d="M19.9.4h60.3c10.7 0 19.4 8.7 19.4 19.4v60.3c0 10.7-8.7 19.4-19.4 19.4H19.9C9.2 99.5.5 90.8.5 80.1V19.9C.4 9.2 9.2.4 19.9.4zm55.3 60.8c0-3.8-1-6.7-3.1-9-2.1-2.2-4.8-3.7-8.2-4.4v-.3c2.4-1 4.2-2.5 5.6-4.7 1.4-2.1 2-4.5 2-7.2 0-2.3-.5-4.4-1.5-6.2-1-1.8-2.5-3.2-4.4-4.3-1.8-1-3.8-1.6-5.9-1.9-2.1-.3-5.2-.5-9.2-.5H31V78h22.2c3.8 0 7-.3 9.5-1s4.8-1.9 6.9-3.5c1.8-1.4 3.2-3.1 4.2-5.2.9-1.9 1.4-4.4 1.4-7.1zM57.4 38.5c0-.9-.2-1.8-.7-2.8-.5-.9-1.2-1.6-2.1-2-.9-.4-2-.6-3.2-.7-1.3 0-3.1-.1-5.6-.1h-1v11.7h1.8c2.4 0 4 0 5-.1 1 0 1.9-.3 3-.8s1.9-1.2 2.3-2.2c.3-.8.5-1.8.5-3zm3.5 22.4c0-1.7-.3-3-1-4s-1.7-1.7-3.1-2.2c-.8-.3-2-.5-3.5-.5h-8.5V68h.7c3.6 0 6.1 0 7.5-.1 1.4-.1 2.8-.4 4.2-1 1.3-.5 2.2-1.3 2.8-2.4.6-1 .9-2.2.9-3.6z"/></symbol><symbol viewBox="0 0 22 22" id="icon_yes"><title>yes</title><path fill="currentColor" d="M6.5 8.9L5 10.5l4.9 4.9L20.8 4.5 19.3 3l-9.4 9.4-3.4-3.5zM19.7 11c0 4.8-3.9 8.7-8.7 8.7S2.3 15.8 2.3 11c0-4.8 3.9-8.7 8.7-8.7.9 0 1.6.1 2.4.3L15.1.9C13.8.5 12.4.1 11 .1 5 .1.1 5 .1 11S5 21.9 11 21.9 21.9 17 21.9 11h-2.2z"/></symbol></svg>