<?xml version="1.0" encoding="utf-8"?>
<!-- Generator: Adobe Illustrator 18.1.1, SVG Export Plug-In . SVG Version: 6.00 Build 0)  -->
<svg version="1.1" id="Layer_1" xmlns="http://www.w3.org/2000/svg" xmlns:xlink="http://www.w3.org/1999/xlink" x="0px" y="0px"
	 viewBox="0 0 60 60" enable-background="new 0 0 60 60" xml:space="preserve">
<g>
	<path fill="currentColor" d="M30,0C13.5,0,0,13.5,0,30s13.5,30,30,30s30-13.5,30-30S46.5,0,30,0z M31,58v-3c0-0.6-0.4-1-1-1
		c-0.6,0-1,0.4-1,1v3C14.4,57.5,2.5,45.6,2,31h3c0.6,0,1-0.4,1-1s-0.4-1-1-1H2C2.5,14.4,14.4,2.5,29,2v3c0,0.6,0.4,1,1,1
		c0.6,0,1-0.4,1-1V2c14.6,0.5,26.5,12.3,27,27h-3c-0.6,0-1,0.4-1,1s0.4,1,1,1h3C57.5,45.6,45.6,57.5,31,58z"/>
	<path fill="currentColor" d="M12.9,47.1l21.3-12.8l12.8-21.3L25.7,25.7L12.9,47.1z M27.2,27.2L27.2,27.2l5.6,5.6l-14,8.4L27.2,27.2z"/>
</g>
</svg>
