<?xml version="1.0" encoding="utf-8"?>
<!-- Generator: Adobe Illustrator 18.1.1, SVG Export Plug-In . SVG Version: 6.00 Build 0)  -->
<svg version="1.1" id="Isolation_Mode" xmlns="http://www.w3.org/2000/svg" xmlns:xlink="http://www.w3.org/1999/xlink" x="0px"
	 y="0px" viewBox="0 0 177 147" enable-background="new 0 0 177 147" xml:space="preserve">
<g>
	<g>
		<g>
			<g>
				<g>
					<path fill="none" stroke="#EEF9FF" stroke-width="0.129" stroke-miterlimit="10" stroke-dasharray="0.8103,0.8103" d="
						M82.9,24.8c0,10.1-8.2,18.3-18.3,18.3s-18.3-8.2-18.3-18.3c0-10.1,8.2-18.3,18.3-18.3S82.9,14.7,82.9,24.8z"/>
				</g>
			</g>
			<g>
				<g>
					<path fill="none" stroke="#EEF9FF" stroke-width="0.1935" stroke-miterlimit="10" stroke-dasharray="0.5064,0.5064" d="
						M76.1,24.8c0,6.3-5.1,11.4-11.4,11.4c-6.3,0-11.4-5.1-11.4-11.4c0-6.3,5.1-11.5,11.4-11.5C71,13.3,76.1,18.5,76.1,24.8z"/>
				</g>
			</g>
			<g>
				<g>
					<path fill="none" stroke="#EEF9FF" stroke-width="6.449900e-002" stroke-miterlimit="10" stroke-dasharray="1.0129,1.0129" d="
						M87.5,24.8c0,12.6-10.2,22.9-22.9,22.9c-12.6,0-22.9-10.2-22.9-22.9C41.7,12.1,52,1.9,64.6,1.9C77.3,1.9,87.5,12.1,87.5,24.8z"
						/>
				</g>
			</g>
		</g>
		<g>
			<g>
				<path fill="#C2E5E1" d="M63.3,43.8l-0.6-4.4l-1.3,0.2c-0.4,0.1-0.9,0-1.3-0.3c-0.5-0.4-0.9-1-1-1.8l-2.7-18.3l0.9-0.1L60,37.4
					c0.1,0.5,0.3,0.9,0.6,1.2c0.1,0.1,0.4,0.2,0.6,0.2l2.3-0.3l0.5,3.8l4-2.7l0.9-1.9l4.2-0.6c0.2,0,0.4-0.2,0.5-0.3
					c0.2-0.3,0.3-0.8,0.3-1.3l-1-6.6l0.1-0.1l9-19.9c-0.2-0.1-0.4-0.2-0.8-0.4L77,6.4l-2.5,5.5l0.1,0.1l-0.1,0.4l-3,6.7l-0.7-4.7
					c-0.1-0.8-0.7-1.5-1.2-1.3l-11.8,1.8c-0.4,0.1-0.7,0.4-0.8,0.9l-0.1,0.6l-1.4-0.7l0.4-0.8l0.4,0.2c0.3-0.6,0.8-1,1.4-1.1
					l11.8-1.8c1.1-0.2,2.1,0.8,2.3,2.1l0.2,1.5l1.5-3.3l-0.2-0.1l3-6.6c0.2-0.3,0.6-0.4,1.1-0.2l4.2,1.9c1.3,0.6,1.4,0.8,1.4,1
					L83,8.6l-0.1,0.2l-9,20l0.9,6.4c0.1,0.7,0,1.5-0.4,2c-0.3,0.4-0.7,0.6-1.1,0.7l-3.7,0.5l-0.8,1.7L63.3,43.8z"/>
			</g>
			<g>
				<path fill="#03384D" d="M73.2,37.4l-11.8,1.8c-0.8,0.1-1.6-0.7-1.8-1.7l-3.1-21c-0.2-1.1,0.4-2,1.2-2.2l11.8-1.8
					c0.8-0.1,1.6,0.7,1.8,1.7l3.1,21C74.5,36.3,74,37.3,73.2,37.4z"/>
				<polygon fill="#20669C" points="72.6,34.9 61.2,36.5 58.3,16.9 69.7,15.2 				"/>
				<polygon opacity="0.26" fill="#FFF2D1" stroke="#FFFFFF" stroke-width="3.172500e-002" stroke-miterlimit="10" points="
					69.5,14.3 60.4,36.7 57.3,16.1 				"/>
				<path fill="#FFF1CC" d="M67.6,36.9c0.1,0.4-0.1,0.7-0.4,0.7c-0.3,0-0.6-0.2-0.6-0.6c-0.1-0.4,0.1-0.7,0.4-0.7
					C67.2,36.3,67.5,36.6,67.6,36.9z"/>
				<path fill="#FFF1CC" d="M65.5,14.5c0,0.2-0.1,0.3-0.2,0.3l-3,0.4c-0.1,0-0.3-0.1-0.3-0.3l0,0c0-0.2,0.1-0.3,0.2-0.3l3-0.4
					C65.4,14.3,65.5,14.4,65.5,14.5L65.5,14.5z"/>
				<g>
					<g>
						<path fill="#FFFFFF" d="M63.8,26.2c0.1,0.4-0.2,0.7-0.6,0.8c-0.4,0.1-0.7-0.2-0.8-0.6c-0.1-0.4,0.2-0.7,0.6-0.8
							C63.4,25.6,63.8,25.8,63.8,26.2z"/>
						<path fill="#FFFFFF" d="M68.1,23.6c0.1,0.6-0.3,1.1-0.9,1.2c-0.6,0.1-1.1-0.3-1.2-0.9c-0.1-0.6,0.3-1.1,0.9-1.2
							C67.5,22.7,68,23.1,68.1,23.6z"/>
						<path fill="#FFFFFF" d="M68.8,27.7c0.1,0.6-0.3,1.1-0.9,1.2c-0.6,0.1-1.1-0.3-1.2-0.9c-0.1-0.6,0.3-1.1,0.9-1.2
							C68.2,26.8,68.8,27.2,68.8,27.7z"/>
						<path fill="none" stroke="#FFFFFF" stroke-width="3.172500e-002" stroke-miterlimit="10" d="M63.1,26.3l3.9-2.5L63.1,26.3z"/>
						<path fill="none" stroke="#FFFFFF" stroke-width="3.172500e-002" stroke-miterlimit="10" d="M63.1,26.3l4.7,1.6L63.1,26.3z"/>
					</g>
					<g>
						<path fill="none" stroke="#FFEDBF" stroke-width="0.1152" stroke-miterlimit="10" d="M60.3,19.1l3.5-0.5L60.3,19.1z"/>
						<path fill="none" stroke="#FFEDBF" stroke-width="9.517500e-002" stroke-miterlimit="10" d="M63.1,33.9l5.2-0.8L63.1,33.9z"/>
						<path fill="none" stroke="#FFEDBF" stroke-width="9.517500e-002" stroke-miterlimit="10" d="M62.8,31.7l6.7-1L62.8,31.7z"/>
						<path fill="none" stroke="#FFEDBF" stroke-width="9.517500e-002" stroke-miterlimit="10" d="M64.6,18.5l0.9-0.1L64.6,18.5z"/>
						<path fill="none" stroke="#FFEDBF" stroke-width="9.517500e-002" stroke-miterlimit="10" d="M66.5,18.2l1.2-0.2L66.5,18.2z"/>
						<path fill="none" stroke="#FFEDBF" stroke-width="9.517500e-002" stroke-miterlimit="10" d="M60.7,20.6l4.5-0.7L60.7,20.6z"/>
						<path fill="none" stroke="#FFEDBF" stroke-width="9.517500e-002" stroke-miterlimit="10" d="M66,19.8l1.8-0.3L66,19.8z"/>
					</g>
				</g>
			</g>
			<g>
				<path fill="#F9CB3B" d="M62.9,37.3L76.7,6.8c0.2-0.4,0.9-0.5,1.6-0.2l3,1.4c0.7,0.3,1.1,0.9,0.9,1.4L68.4,39.8L62.9,37.3z"/>
				<path fill="#E3B836" d="M62.7,37.3L76.5,6.7c0.2-0.4,0.7-0.7,1.1-0.5L79.3,7c0.4,0.2,0.5,0.7,0.3,1.1L65.9,38.7L62.7,37.3z"/>
				<path fill="#004F6B" d="M81.3,7.9l-2-0.9l-1-0.4l-0.7-0.3C77.2,6,76.9,6,76.8,6.1L74,12.2l0.2,0.1l2.9,1.3l2.5,1.2l2.8-6.2
					C82.5,8.5,82,8.2,81.3,7.9z"/>
				<path fill="#002E3F" d="M79.2,6.9l-1.1-0.5l-0.5-0.2L77.1,6c-0.2-0.1-0.4-0.1-0.5,0l-2.8,6.2l0.1,0.1l1.6,0.7l1.4,0.6l2.8-6.2
					C79.9,7.3,79.6,7.1,79.2,6.9z"/>
				<polygon fill="#E8A700" points="63.7,43 62.7,37.3 68.4,39.8 				"/>
				<polygon fill="#FFFFFF" points="63.7,43 65.6,41.7 63.4,41 				"/>
			</g>
		</g>
	</g>
	<g>
		<g>
			<g>
				<g>
					<path fill="none" stroke="#EEF9FF" stroke-width="0.129" stroke-miterlimit="10" stroke-dasharray="0.8103,0.8103" d="
						M139.4,24.1c0,9.7-7.9,17.5-17.5,17.5c-9.7,0-17.6-7.9-17.6-17.5c0-9.7,7.9-17.6,17.6-17.6C131.5,6.5,139.4,14.4,139.4,24.1z"
						/>
				</g>
			</g>
			<g>
				<g>
					<path fill="none" stroke="#EEF9FF" stroke-width="0.129" stroke-miterlimit="10" stroke-dasharray="0.8103,0.8103" d="
						M132.8,24.1c0,6.1-4.9,11-11,11c-6.1,0-11-4.9-11-11c0-6.1,4.9-11,11-11C127.9,13.1,132.8,18,132.8,24.1z"/>
				</g>
			</g>
			<g>
				<g>
					<path fill="none" stroke="#EEF9FF" stroke-width="0.129" stroke-miterlimit="10" stroke-dasharray="0.8103,0.8103" d="
						M143.7,24.1c0,12.1-9.8,21.9-21.9,21.9c-12.1,0-21.9-9.8-21.9-21.9c0-12.1,9.8-21.9,21.9-21.9C133.9,2.2,143.7,12,143.7,24.1z"
						/>
				</g>
			</g>
		</g>
		<g>
			<path fill="none" stroke="#FFFFFF" stroke-width="0.412" d="M117,17.6c-3.6,2.9-4.1,8.2-1.2,11.8c2.9,3.6,8.2,4.1,11.8,1.2
				c3.6-2.9,4.1-8.2,1.2-11.8C125.9,15.2,120.6,14.7,117,17.6z"/>
			<path fill="none" stroke="#002E3F" stroke-width="0.1459" d="M117,17.6c-3.6,2.9-4.1,8.2-1.2,11.8c2.9,3.6,8.2,4.1,11.8,1.2
				c3.6-2.9,4.1-8.2,1.2-11.8C125.9,15.2,120.6,14.7,117,17.6z"/>
			<path opacity="0.61" fill="#769FA5" d="M117.6,18.3c-3.2,2.6-3.7,7.3-1.1,10.5c2.6,3.2,7.3,3.7,10.5,1.1
				c3.2-2.6,3.7-7.3,1.1-10.4C125.5,16.2,120.8,15.7,117.6,18.3z"/>
			<path fill="#FFFFFF" d="M119.2,37.2c-0.1,0.5,0.6,1,1.4,1.1l0,0c0.8,0.1,1.5-0.3,1.6-0.8l0.5-5.2c0.1-0.5-0.6-1-1.4-1.1l0,0
				c-0.8-0.1-1.5,0.3-1.6,0.8L119.2,37.2z"/>
			<path fill="#20669C" d="M117.2,49.7c-0.1,1,0.8,1.9,2,2.1l0,0c1.2,0.1,2.3-0.6,2.4-1.6l1-9.9c0.1-1-0.8-1.9-2-2.1l0,0
				c-1.2-0.1-2.3,0.6-2.4,1.6L117.2,49.7z"/>
			<path fill="none" stroke="#FFB700" stroke-width="4.085700e-002" d="M120.6,38.2l0.6-5.8L120.6,38.2z"/>
			<path opacity="0.56" fill="#FFFFFF" d="M118.2,50.7c-0.2,0-0.1-2.6,0.2-5.8c0.4-3.2,0.9-5.7,1.1-5.7c0.2,0,0.1,2.6-0.2,5.8
				C118.9,48.1,118.4,50.7,118.2,50.7z"/>
		</g>
	</g>
	<g>
		<g>
			<g>
				<g>
					
						<circle fill="none" stroke="#EEF9FF" stroke-width="0.129" stroke-miterlimit="10" stroke-dasharray="0.8103,0.8103" cx="151" cy="71" r="18.3"/>
				</g>
			</g>
			<g>
				<g>
					
						<circle fill="none" stroke="#EEF9FF" stroke-width="0.129" stroke-miterlimit="10" stroke-dasharray="0.8103,0.8103" cx="151" cy="71" r="11.4"/>
				</g>
			</g>
			<g>
				<g>
					<path fill="none" stroke="#EEF9FF" stroke-width="0.129" stroke-miterlimit="10" stroke-dasharray="0.8103,0.8103" d="
						M173.9,71c0,12.6-10.2,22.9-22.9,22.9c-12.6,0-22.9-10.2-22.9-22.9c0-12.6,10.2-22.9,22.9-22.9C163.7,48.2,173.9,58.4,173.9,71
						z"/>
				</g>
			</g>
		</g>
		<g>
			<path fill="#F9CB3B" d="M162.7,70.3C162.7,70.3,162.7,70.3,162.7,70.3C162.7,70.3,162.7,70.2,162.7,70.3
				C162.7,70.2,162.7,70.2,162.7,70.3c0-0.1,0-0.1,0-0.1c0-0.1,0-0.2,0-0.4c0,0,0-0.1,0-0.1c0,0,0-0.1,0-0.1c0-0.3-0.1-0.6-0.1-0.8
				c0,0,0,0,0,0c0,0,0-0.2-0.1-0.3v0c0,0,0,0,0-0.1c0,0,0,0,0,0c0,0,0,0,0,0c-0.1-0.3-0.1-0.5-0.1-0.5c-0.1-0.3-0.2-0.7-0.3-0.9
				c0-0.1-0.1-0.2-0.1-0.3c0-0.1-0.1-0.2-0.1-0.3c0,0,0,0,0-0.1c0,0,0-0.1,0-0.1c-0.1-0.3-0.3-0.7-0.5-1.1c0-0.1-0.1-0.1-0.1-0.2
				c0,0,0,0,0-0.1c0,0,0-0.1,0-0.1c-0.2-0.4-0.5-0.8-0.8-1.2c-0.2-0.2-0.4-0.5-0.6-0.7c-0.1-0.1-0.2-0.2-0.3-0.3
				c-0.1-0.1-0.3-0.3-0.4-0.4c0,0,0,0,0,0c-0.3-0.3-0.8-0.7-1.1-0.9c-0.3-0.2-0.7-0.5-1.1-0.7c0,0,0,0,0,0s0,0,0,0
				c-0.1-0.1-0.3-0.2-0.4-0.2c0,0,0,0,0,0c0,0,0,0,0,0c0,0,0,0,0,0l0,0c0,0,0,0,0,0c0,0,0,0,0,0c-0.2-0.1-0.5-0.2-0.7-0.3
				c0,0-0.1,0-0.1,0c-0.2-0.1-0.5-0.2-0.7-0.3c-0.1,0-0.1,0-0.2-0.1c-0.2,0-0.3-0.1-0.4-0.1l0,0c-0.1,0-0.2-0.1-0.3-0.1c0,0,0,0,0,0
				c0,0,0,0,0,0c-0.1,0-0.2,0-0.3-0.1l0,0c0,0,0,0,0,0c-0.1,0-0.2,0-0.3-0.1l0,0c-0.2,0-0.4-0.1-0.6-0.1c-0.1,0-0.2,0-0.3,0
				c0,0,0,0,0,0c-0.1,0-0.1,0-0.1,0c-0.1,0-0.2,0-0.3,0l0,0c0,0-0.1,0-0.2,0h0c0,0,0,0-0.1,0c-0.1,0-0.1,0-0.2,0l0,0c0,0,0,0,0,0
				c-0.1,0-0.1,0-0.3,0c-0.1,0-0.1,0-0.2,0c0,0,0,0,0,0c-0.1,0-0.3,0-0.4,0c0,0,0,0-0.1,0c-0.1,0-0.2,0-0.2,0h0c-0.1,0-0.2,0-0.3,0
				c-0.1,0-0.2,0-0.2,0c0,0,0,0,0,0c-0.1,0-0.2,0-0.3,0c-0.1,0-0.2,0-0.3,0.1l0,0c-0.1,0-0.1,0-0.2,0c-0.1,0-0.2,0-0.2,0
				c0,0,0,0,0,0h0c-0.2,0-0.4,0.1-0.6,0.1c0,0,0,0,0,0c-0.1,0-0.2,0-0.3,0.1c-0.2,0.1-0.5,0.2-0.7,0.2c-0.4,0.1-0.8,0.3-1.2,0.5
				c0,0,0,0,0,0h0c-0.2,0.1-0.4,0.2-0.6,0.3c-0.2,0.1-0.3,0.2-0.5,0.3c-0.1,0.1-0.3,0.2-0.4,0.3c-0.1,0.1-0.2,0.1-0.3,0.2
				c-0.2,0.1-0.4,0.3-0.5,0.4c-0.1,0.1-0.3,0.2-0.4,0.3c-0.1,0.1-0.1,0.1-0.2,0.2c-0.1,0.1-0.3,0.2-0.4,0.4
				c-0.1,0.1-0.3,0.3-0.4,0.5c-0.1,0.2-0.3,0.4-0.4,0.5c0,0,0,0,0,0c0,0,0,0,0,0c-0.1,0.1-0.4,0.5-0.7,1c-0.1,0.1-0.1,0.2-0.2,0.3
				c0,0,0,0,0,0c0,0,0,0,0,0c-0.1,0.3-0.2,0.5-0.3,0.7c0,0,0,0,0,0c-0.1,0.2-0.2,0.5-0.3,0.7c0,0,0,0.1,0,0.1
				c-0.1,0.2-0.2,0.5-0.2,0.8l0,0l0,0c0,0,0,0,0,0c0,0,0,0,0,0c0,0.1-0.1,0.3-0.1,0.4c0,0,0,0,0,0c0,0,0,0,0,0
				c0,0.1-0.1,0.3-0.1,0.5c0,0,0,0,0,0c0,0.2-0.1,0.6-0.1,0.8l0,0c0,0,0,0.1,0,0.1c0,0,0,0,0,0l0,0c0,0,0,0,0,0c0,0,0,0,0,0.1
				c0,0.1,0,0.2,0,0.3l0,0c0,0,0,0,0,0c0,0,0,0.1,0,0.1c0,0.1,0,0.3,0,0.5v0l0,0c0,0.1,0,0.3,0,0.5c0,0,0,0,0,0c0,0,0,0,0,0.1
				c0,0,0,0,0,0.1c0,0,0,0,0,0c0,0,0,0.1,0,0.1l0,0c0,0,0,0.1,0,0.1c0,0,0,0,0,0c0,0,0,0,0,0.1c0,0,0,0,0,0c0,0,0,0,0,0
				c0,0,0,0.1,0,0.1v0c0,0.1,0,0.3,0,0.3c0,0,0,0.1,0,0.1c0,0.1,0,0.2,0,0.3v0l0,0c0,0,0,0,0,0c0,0,0,0,0,0c0,0,0,0,0,0c0,0,0,0,0,0
				c0,0,0,0,0,0c0,0,0,0,0,0c0,0,0,0,0,0c0,0,0,0,0,0c0,0,0,0,0,0c0,0.1,0,0.1,0,0.2c0,0,0,0,0,0c0,0,0,0,0,0l0,0c0,0,0,0,0,0v0
				c0,0.1,0,0.1,0,0.2c0,0,0,0,0,0c0,0,0,0.1,0,0.1c0,0,0,0,0,0c0,0,0,0.1,0,0.1c0,0,0,0,0,0c0,0,0,0.1,0,0.1c0,0,0,0,0,0
				c0,0,0,0.1,0,0.1c0,0,0,0,0,0c0,0,0,0.1,0,0.1c0,0,0,0,0,0c0,0.1,0,0.1,0,0.1c0,0,0,0,0,0c0,0.1,0.1,0.3,0.1,0.4
				c0.1,0.2,0.1,0.4,0.2,0.5c0,0,0,0,0,0v0c0.1,0.1,0.1,0.3,0.2,0.5h0c0.1,0.1,0.1,0.3,0.2,0.4c0,0,0.1,0.3,0.4,0.8c0,0,0,0,0,0.1
				c0,0,0,0,0,0c0.1,0.1,0.1,0.2,0.2,0.3c0,0,0,0,0,0c0,0,0,0,0,0c0,0,0,0,0,0c0.1,0.2,0.2,0.4,0.3,0.7c0,0,0,0.1,0,0.1
				c0,0,0,0.1,0.1,0.1c0,0,0,0,0,0.1c0,0,0,0.1,0.1,0.1c0,0,0,0,0,0v0c0.1,0.2,0.2,0.3,0.2,0.5c0,0.1,0.1,0.2,0.1,0.3
				c0,0,0,0.1,0,0.1l0,0c0,0,0,0.1,0,0.1c0,0,0,0,0,0c0,0,0,0.1,0,0.1c0,0,0,0,0,0c0.1,0.2,0.1,0.3,0.2,0.4c0,0,0,0,0,0
				c0.1,0.2,0.2,0.4,0.3,0.7c0,0.1,0.1,0.2,0.1,0.3c0,0.1,0.1,0.1,0.1,0.2c0,0.1,0.1,0.2,0.1,0.3c0,0,0,0.1,0,0.1c0,0,0,0,0,0
				c0,0,0,0,0,0l0,0c0,0,0,0.1,0,0.1c0,0,0,0,0,0c0,0,0,0,0,0c0,0,0,0,0,0c0,0,0,0,0,0c0.1,0.2,0.2,0.6,0.3,0.9c0,0,0,0.1,0,0.1
				c0,0,0,0.1,0,0.2c0,0,0,0,0,0c0,0,0,0,0,0.1c0.1,0.4,0.2,0.7,0.3,1c0,0,0,0,0,0c0,0.1,0,0.1,0,0.1c0,0.1,0,0.2,0.1,0.3
				c0.1,0.3,0.1,0.6,0.2,1c0,0.1,0,0.1,0,0.2c0,0,0,0,0,0.1c0,0.2,0.1,0.5,0.1,0.7c0,0.1,0,0.2,0,0.3c0,0,0,0,0,0.1c0,0,0,0,0,0
				c0,0.1,0,0.3,0,0.4c0,0.2,0,0.5,0.1,0.7c0,0.2,0,0.4,0,0.7c0,0.1,0,0.1,0,0.1c0,0,0,0,0,0c0,0.1,0,0.2,0,0.3c0,0.2,0,0.3,0,0.5
				c0,0,0,0,0,0c0,0,0,0,0,0c0,0,0,0.1,0,0.2c0,0,0,0,0,0c0,0,0,0,0,0c0,0,0,0,0,0.1v0c0,0,0,0,0,0.1c0,0,0,0,0,0c0,0,0,0,0,0.1
				c0,0.1,0,0.2,0,0.2v0c0,0,0,0,0,0l0,0c0,0,0,0,0,0c0,0.1,0,0.1,0.1,0.2c0,0.1,0.1,0.1,0.1,0.2c0,0,0,0.1,0.1,0.1c0,0,0,0,0,0
				c0,0,0,0,0,0c0,0,0,0,0,0c0,0,0,0,0,0l0,0h0c0,0,0,0,0,0c0,0,0,0.1,0.1,0.1l0,0c0,0,0,0,0,0c0,0,0.1,0.1,0.1,0.1c0,0,0,0,0,0
				c0,0,0,0,0,0c0,0,0,0,0,0c0,0,0,0,0,0c0,0,0,0,0.1,0.1l0,0c0,0,0,0,0,0c0,0,0,0,0,0c0,0,0.1,0.1,0.1,0.1c0,0,0,0,0,0
				c0.1,0.1,0.2,0.1,0.3,0.2c0,0,0,0,0.1,0h0l9.6,0.2c0.1-0.1,0.2-0.1,0.3-0.2c0,0,0.1-0.1,0.2-0.1c0,0,0,0,0,0c0,0,0,0,0,0
				c0,0,0,0,0,0h0c0,0,0.1-0.1,0.1-0.1c0,0,0.1-0.1,0.1-0.1c0,0,0,0,0,0c0,0,0,0,0,0c0,0,0-0.1,0.1-0.1c0,0,0,0,0,0
				c0,0,0-0.1,0.1-0.1c0,0,0-0.1,0.1-0.1c0-0.1,0.1-0.2,0.1-0.2c0,0,0,0,0,0c0,0,0,0,0,0v0c0-0.1,0.1-0.2,0.1-0.2c0,0,0,0,0,0
				c0,0,0,0,0,0c0-0.1,0-0.1,0-0.2c0,0,0,0,0,0c0,0,0,0,0,0c0,0,0-0.1,0-0.1l0,0c0,0,0-0.1,0-0.1v0c0,0,0,0,0,0c0-0.1,0-0.3,0-0.5
				c0-0.1,0-0.2,0-0.3c0,0,0,0,0,0c0,0,0-0.1,0-0.1c0-0.3,0-0.5,0.1-0.7c0-0.2,0.1-0.5,0.1-0.7c0-0.1,0-0.1,0-0.2
				c0-0.2,0.1-0.4,0.1-0.5c0-0.2,0.1-0.5,0.2-0.8c0,0,0,0,0,0l0,0c0.1-0.6,0.3-1.1,0.4-1.4c0.1-0.3,0.2-0.6,0.3-0.9c0,0,0,0,0-0.1
				c0,0,0,0,0-0.1c0-0.1,0.1-0.2,0.1-0.3c0,0,0,0,0-0.1v0c0,0,0,0,0-0.1c0,0,0,0,0,0c0,0,0,0,0-0.1c0,0,0,0,0,0c0,0,0,0,0,0
				c0,0,0,0,0,0c0,0,0,0,0,0c0,0,0,0,0,0c0,0,0,0,0,0c0,0,0,0,0,0c0,0,0,0,0-0.1c0,0,0,0,0,0c0,0,0-0.1,0.1-0.2l0,0
				c0.1-0.1,0.1-0.3,0.1-0.4c0,0,0,0,0,0c0,0,0,0,0,0c0,0,0,0,0,0c0-0.1,0.1-0.2,0.1-0.3l0,0c0,0,0,0,0-0.1c0,0,0-0.1,0.1-0.1
				c0-0.1,0.1-0.1,0.1-0.2c0.2-0.3,0.2-0.5,0.4-0.8c0,0,0,0,0,0c0,0,0,0,0,0h0c0.1-0.2,0.2-0.4,0.3-0.7c0.1-0.1,0.1-0.2,0.2-0.3
				c0.1-0.1,0.1-0.3,0.2-0.4c0,0,0,0,0,0c0,0,0,0,0,0c0-0.1,0.1-0.1,0.1-0.2c0-0.1,0.1-0.2,0.1-0.3c0.2-0.3,0.3-0.5,0.4-0.7
				c0.3-0.4,0.4-0.7,0.5-0.8c0.1-0.1,0.2-0.3,0.2-0.4c0.1-0.1,0.2-0.3,0.2-0.4c0.1-0.1,0.1-0.3,0.2-0.4l0,0c0,0,0,0,0,0s0,0,0,0
				c0.1-0.1,0.1-0.3,0.2-0.5h0c0.1-0.3,0.2-0.6,0.3-0.9c0-0.1,0.1-0.3,0.1-0.5c0-0.1,0.1-0.3,0.1-0.5l0,0c0,0,0,0,0,0
				c0-0.1,0.1-0.3,0.1-0.5c0-0.2,0-0.3,0.1-0.5c0,0,0,0,0,0l0,0c0-0.1,0-0.1,0-0.2c0-0.1,0-0.2,0-0.3c0,0,0,0,0,0l0,0
				c0,0,0-0.2,0-0.5c0,0,0,0,0,0C162.7,70.6,162.7,70.4,162.7,70.3z"/>
			<path fill="#E3B836" d="M156.6,89.4C156.6,89.4,156.6,89.4,156.6,89.4C156.6,89.4,156.6,89.4,156.6,89.4c0-0.1,0-0.2,0.1-0.2
				c0,0,0,0,0,0c0,0,0,0,0,0c0,0,0-0.1,0-0.1l0,0c0,0,0-0.1,0-0.1v0c0,0,0,0,0,0c0-0.1,0-0.3,0-0.5c0-0.1,0-0.2,0-0.3c0,0,0,0,0,0
				c0,0,0-0.1,0-0.1c0-0.3,0-0.5,0.1-0.7c0-0.2,0.1-0.5,0.1-0.7c0-0.1,0-0.1,0-0.2c0-0.2,0.1-0.4,0.1-0.5c0-0.2,0.1-0.5,0.2-0.8
				c0,0,0,0,0,0l0,0c0.1-0.6,0.3-1.1,0.4-1.4c0.1-0.3,0.2-0.6,0.3-0.9c0,0,0,0,0-0.1c0,0,0,0,0-0.1c0-0.1,0.1-0.2,0.1-0.3
				c0,0,0,0,0-0.1v0c0,0,0,0,0-0.1c0,0,0,0,0,0c0,0,0,0,0-0.1c0,0,0,0,0,0c0,0,0,0,0,0c0,0,0,0,0,0c0,0,0,0,0,0c0,0,0,0,0,0
				c0,0,0,0,0,0c0,0,0,0,0,0c0,0,0,0,0-0.1c0,0,0,0,0,0c0,0,0-0.1,0.1-0.2l0,0c0.1-0.1,0.1-0.3,0.1-0.4c0,0,0,0,0,0c0,0,0,0,0,0
				c0,0,0,0,0,0c0-0.1,0.1-0.2,0.1-0.3l0,0c0,0,0,0,0-0.1c0,0,0-0.1,0.1-0.1c0-0.1,0.1-0.1,0.1-0.2c0.2-0.3,0.2-0.5,0.4-0.8
				c0,0,0,0,0,0c0,0,0,0,0,0h0c0.1-0.2,0.2-0.4,0.3-0.7c0.1-0.1,0.1-0.2,0.2-0.3c0.1-0.1,0.1-0.3,0.2-0.4c0,0,0,0,0,0c0,0,0,0,0,0
				c0-0.1,0.1-0.1,0.1-0.2c0-0.1,0.1-0.2,0.1-0.3c0.2-0.3,0.3-0.5,0.4-0.7c0.3-0.4,0.4-0.7,0.5-0.8c0.1-0.1,0.2-0.3,0.2-0.4
				c0.1-0.1,0.2-0.3,0.2-0.4c0.1-0.1,0.1-0.3,0.2-0.4l0,0c0,0,0,0,0,0s0,0,0,0c0.1-0.1,0.1-0.3,0.2-0.5h0c0.1-0.3,0.2-0.6,0.3-0.9
				c0-0.1,0.1-0.3,0.1-0.5c0-0.1,0.1-0.3,0.1-0.5l0,0c0,0,0,0,0,0c0-0.1,0.1-0.3,0.1-0.5c0-0.2,0-0.3,0.1-0.5c0,0,0,0,0,0l0,0
				c0-0.1,0-0.1,0-0.2c0-0.1,0-0.2,0-0.3c0,0,0,0,0,0l0,0c0,0,0-0.2,0-0.5c0,0,0,0,0,0c0-0.1,0-0.3,0-0.4c0,0,0,0,0,0c0,0,0,0,0,0
				c0,0,0,0,0,0c0,0,0,0,0,0c0-0.1,0-0.2,0-0.4c0,0,0-0.1,0-0.1c0,0,0-0.1,0-0.1c0-0.3-0.1-0.6-0.1-0.8c0,0,0,0,0,0
				c0,0,0-0.2-0.1-0.3v0c0,0,0,0,0-0.1c0,0,0,0,0,0c0,0,0,0,0,0c-0.1-0.3-0.1-0.5-0.1-0.5c-0.1-0.3-0.2-0.7-0.3-0.9
				c0-0.1-0.1-0.2-0.1-0.3c0-0.1-0.1-0.2-0.1-0.3c0,0,0,0,0-0.1c0,0,0-0.1,0-0.1c-0.1-0.3-0.3-0.7-0.5-1.1c0-0.1-0.1-0.1-0.1-0.2
				c0,0,0,0,0-0.1c0,0,0-0.1,0-0.1c-0.2-0.4-0.5-0.8-0.8-1.2c-0.2-0.2-0.4-0.5-0.6-0.7c-0.1-0.1-0.2-0.2-0.3-0.3
				c-0.1-0.1-0.3-0.3-0.4-0.4c0,0,0,0,0,0c-0.3-0.3-0.8-0.7-1.1-0.9c-0.3-0.2-0.7-0.5-1.1-0.7c0,0,0,0,0,0s0,0,0,0
				c-0.1-0.1-0.3-0.2-0.4-0.2c0,0,0,0,0,0c0,0,0,0,0,0c0,0,0,0,0,0l0,0c0,0,0,0,0,0c0,0,0,0,0,0c-0.2-0.1-0.5-0.2-0.7-0.3
				c0,0-0.1,0-0.1,0c-0.2-0.1-0.5-0.2-0.7-0.3c-0.1,0-0.1,0-0.2-0.1c-0.2,0-0.3-0.1-0.4-0.1l0,0c-0.1,0-0.2-0.1-0.3-0.1c0,0,0,0,0,0
				c0,0,0,0,0,0c-0.1,0-0.2,0-0.3-0.1l0,0c0,0,0,0,0,0c-0.1,0-0.2,0-0.3-0.1l0,0c-0.2,0-0.4-0.1-0.6-0.1c-0.1,0-0.2,0-0.3,0
				c0,0,0,0,0,0c-0.1,0-0.1,0-0.1,0c-0.1,0-0.2,0-0.3,0l0,0c0,0-0.1,0-0.2,0h0c0,0,0,0-0.1,0c0,0,0,0,0,0l-1.2,32.1l5.1,0.1
				c0.1-0.1,0.2-0.1,0.3-0.2c0,0,0.1-0.1,0.2-0.1c0,0,0,0,0,0c0,0,0,0,0,0c0,0,0,0,0,0h0c0,0,0.1-0.1,0.1-0.1c0,0,0.1-0.1,0.1-0.1
				c0,0,0,0,0,0c0,0,0,0,0,0c0,0,0-0.1,0.1-0.1c0,0,0,0,0,0c0,0,0-0.1,0.1-0.1c0,0,0-0.1,0.1-0.1c0-0.1,0.1-0.2,0.1-0.2c0,0,0,0,0,0
				c0,0,0,0,0,0v0C156.6,89.6,156.6,89.5,156.6,89.4z"/>
			<path fill="#0E3757" stroke="#FFFFFF" stroke-width="2.441200e-002" d="M154.7,91.2l-8-0.1c-0.7,0-1.3,0.5-1.3,1.1
				c0,0.6,0.6,1.1,1.3,1.1l8,0.1c0.7,0,1.3-0.5,1.3-1.1C156,91.7,155.4,91.2,154.7,91.2z"/>
			<path fill="#0E3757" stroke="#FFFFFF" stroke-width="2.441200e-002" d="M154.7,93.5l-8-0.1c-0.7,0-1.3,0.5-1.3,1.1
				c0,0.6,0.6,1.1,1.3,1.1l8,0.1c0.7,0,1.3-0.5,1.3-1.1C156,94,155.4,93.5,154.7,93.5z"/>
			<path fill="#0E3757" stroke="#FFFFFF" stroke-width="2.441200e-002" d="M149.2,97.5c0.4,0.4,0.9,0.7,1.5,0.7
				c0.6,0,1.1-0.2,1.5-0.7c0.9-0.3,1.7-0.8,2.4-1.5l-7.9-0.1C147.3,96.6,148.2,97.2,149.2,97.5z"/>
			<g opacity="0.8">
				<path fill="none" stroke="#FFFFFF" stroke-width="1.785900e-002" stroke-miterlimit="10" d="M153,84.5l0.7-9.2
					c0.1-1.2,0.9-2,1.9-2l2.7,0.2L153,84.5z"/>
				<g>
					<path opacity="0.75" fill="#FFFFFF" d="M160.2,73.8c-0.1,0.8-0.7,1.4-1.5,1.3c-0.8-0.1-1.4-0.7-1.3-1.5
						c0.1-0.8,0.7-1.4,1.5-1.3C159.7,72.4,160.3,73,160.2,73.8z"/>
					<path opacity="0.75" fill="none" stroke="#FFFFFF" stroke-width="8.916000e-003" stroke-miterlimit="10" d="M160.7,73.9
						c-0.1,1-1,1.8-2,1.8c-1-0.1-1.8-1-1.8-2c0.1-1,1-1.8,2-1.8C160,71.9,160.8,72.8,160.7,73.9z"/>
				</g>
				<g>
					<path opacity="0.75" fill="#FFFFFF" d="M154.3,84.8c0,0.6-0.6,1.1-1.2,1.1c-0.6,0-1.1-0.6-1.1-1.2c0-0.6,0.6-1.1,1.2-1.1
						C153.9,83.6,154.4,84.1,154.3,84.8z"/>
					<path opacity="0.75" fill="none" stroke="#FFFFFF" stroke-width="7.100000e-003" stroke-miterlimit="10" d="M154.7,84.8
						c-0.1,0.8-0.8,1.5-1.6,1.4c-0.8-0.1-1.5-0.8-1.4-1.6c0.1-0.8,0.8-1.5,1.6-1.4C154.1,83.2,154.7,84,154.7,84.8z"/>
				</g>
			</g>
			<g opacity="0.8">
				<path opacity="0.8" fill="none" stroke="#FFFFFF" stroke-width="3.634500e-002" stroke-miterlimit="10" d="M148.5,84.6l0.7-15.1
					c0-1.2-0.7-2.1-1.7-2.1l-2.7-0.1L148.5,84.6z"/>
				<g>
					<path opacity="0.75" fill="#FFFFFF" d="M142.7,67.4c0,0.8,0.6,1.5,1.4,1.5c0.8,0,1.5-0.6,1.5-1.4c0-0.8-0.6-1.4-1.4-1.5
						C143.4,66,142.8,66.6,142.7,67.4z"/>
					<path opacity="0.75" fill="none" stroke="#FFFFFF" stroke-width="8.916000e-003" stroke-miterlimit="10" d="M142.3,67.4
						c0,1.1,0.8,1.9,1.8,2c1,0,1.9-0.8,1.9-1.9c0-1-0.8-1.9-1.8-1.9C143.2,65.5,142.3,66.3,142.3,67.4z"/>
				</g>
				<g>
					<path opacity="0.75" fill="#FFFFFF" d="M147.1,84.7c0,0.6,0.5,1.2,1.1,1.2c0.6,0,1.2-0.5,1.2-1.1c0-0.6-0.5-1.2-1.1-1.2
						C147.7,83.6,147.2,84.1,147.1,84.7z"/>
					<path opacity="0.75" fill="none" stroke="#FFFFFF" stroke-width="7.100000e-003" stroke-miterlimit="10" d="M146.8,84.7
						c0,0.8,0.6,1.5,1.5,1.6c0.8,0,1.5-0.6,1.6-1.5c0-0.8-0.6-1.5-1.5-1.6C147.5,83.2,146.8,83.8,146.8,84.7z"/>
				</g>
			</g>
		</g>
	</g>
	<g>
		<g>
			<g>
				<g>
					
						<circle fill="none" stroke="#EEF9FF" stroke-width="0.1229" stroke-miterlimit="10" stroke-dasharray="0.7721,0.7721" cx="125.5" cy="123.8" r="17.5"/>
				</g>
			</g>
			<g>
				<g>
					<path fill="none" stroke="#EEF9FF" stroke-width="0.1229" stroke-miterlimit="10" stroke-dasharray="0.7721,0.7721" d="
						M136.4,123.8c0,6-4.9,10.9-10.9,10.9c-6,0-10.9-4.9-10.9-10.9c0-6,4.9-10.9,10.9-10.9C131.6,112.9,136.4,117.8,136.4,123.8z"/>
				</g>
			</g>
			<g>
				<g>
					<path fill="none" stroke="#EEF9FF" stroke-width="0.1229" stroke-miterlimit="10" stroke-dasharray="0.7721,0.7721" d="
						M147.4,123.8c0,12-9.8,21.8-21.8,21.8c-12,0-21.8-9.8-21.8-21.8c0-12,9.8-21.8,21.8-21.8C137.6,102,147.4,111.7,147.4,123.8z"
						/>
				</g>
			</g>
		</g>
		<g>
			<path fill="#2D8ED9" d="M141.2,119.1c0-3.6-3.2-6.5-7.2-6.5h-17.5c-4,0-7.2,2.9-7.2,6.5v4.6h31.8V119.1z"/>
			<path fill="#20669C" d="M109.4,123.7v5.7c0,3.6,3.2,6.6,7.2,6.6H134c4,0,7.2-2.9,7.2-6.6v-5.7H109.4z"/>
		</g>
		<polygon fill="#E6F5FF" points="122.8,129.4 122.7,124 122.5,118.6 127.2,121.1 132,123.7 127.4,126.5 		"/>
	</g>
</g>
<g>
	<g>
		<path fill="none" stroke="#C2E5E1" stroke-width="0.1679" stroke-miterlimit="10" d="M89.4,109.3l-8.7-24.4c0,0,0,0,0,0l-8.1-22.7
			c-0.9-2.5-2.9-4-4.5-3.4l-5.5,2c-1.6,0.6-2.3,3.1-1.4,5.5l0.1,0.4l-29,23.6l-2.8,1c-1-1.8-2.2-2.8-4.6-2L8.7,95
			c-2.8,1-4.5,3.8-4.2,6.5l-0.1,0c-0.6,0.2-1.1,0.5-1.5,0.9l0,0h0c-0.1,0.1-0.3,0.3-0.4,0.4l-0.5,0.5l0,0.1c-0.6,1-0.8,2.2-0.4,3.4
			l3.8,10.6c0.4,1.2,1.3,2,2.4,2.4l0,0.1l0.3,0c0.8,0.2,1.8,0.2,2.7-0.1l0.2,0.7c0.6,1.8,3.8,2.3,7,1.1l0.5-0.2c0,0.1,0,0.2,0.1,0.2
			l6.4,17.9c1.3,3.6,3.5,6.1,4.9,5.6l7.2-2.6c0.8-0.3-0.4-3.2-1.9-6.3c-1.6-3.4-3.1-9.1-3.5-12.6c-0.2-2.2-0.5-4.7-1-6.5l3.5-1.3
			c2.9-1,3.1-2.4,2.6-4l2.6-0.9l37.4,0l0.9,2.4c0.4,1.2,2,1.8,3.5,1.4c0.1,0,0.2,0,0.3-0.1l5.5-2c0.1,0,0.2-0.1,0.3-0.1
			C89,112,89.8,110.6,89.4,109.3z"/>
		<path fill="#C3AE3E" d="M81.1,105c0.9,2.4-0.4,5.1-2.9,6l-38.7,0l-9.6,3.4c-2.5,0.9-5.1-0.4-6-2.9l-4.2-11.8
			c-0.9-2.4,0.4-5.1,2.9-6l9.6-3.4l30-24.4c2.5-0.9,5.1,0.4,6,2.9L81.1,105z"/>
		<path fill="#F9DD4F" d="M70.1,73.9c-0.9-2.5-3.6-3.7-6-2.9l-30,24.4l-9.6,3.4c-2.5,0.9-3.7,3.6-2.9,6l1.3,3.7l52.8-18.8L70.1,73.9
			z"/>
		<path fill="#FFB700" d="M23.1,111.1c0.8,2.1,1.1,3.9-1.1,4.7l-11.1,3.9c-2.2,0.8-4.7-0.3-5.4-2.4l-3.8-10.6
			c-0.8-2.1,0.4-4.5,2.7-5.3l11.1-3.9c2.2-0.8,3.1,0.9,3.8,3L23.1,111.1z"/>
		<path fill="#B8A749" d="M29.8,114.7c1.1,1.2,1.7,5.4,2,9c0.4,3.5,1.9,9.2,3.5,12.6c1.5,3.1,2.7,6,1.9,6.3l-7.2,2.6
			c-1.4,0.5-3.7-2-4.9-5.6l-6.4-17.9c-1.3-3.6-0.2-4.4,1.2-4.9l7.2-2.6C28.1,113.9,29,113.8,29.8,114.7z"/>
		<path fill="#E6D15B" d="M27.8,125.1c-0.7,0.3-1.3,0.5-1.2,0.7l0.3,1c0.1,0.2,0.7,0.2,1.4-0.1l3.6-1.3l-0.6-1.6L27.8,125.1z"/>
		<path fill="#E6D15B" d="M30.8,135.7c-0.7,0.3-1.3,0.5-1.2,0.7l0.3,1c0.1,0.2,0.7,0.2,1.4-0.1L35,136l-0.6-1.6L30.8,135.7z"/>
		<path fill="#E6D15B" d="M28.2,130.8c-0.9,0.3-1.7,0.6-1.6,0.8l0.3,1c0.1,0.2,0.9,0.1,1.8-0.2l4.6-1.6l-0.6-1.6L28.2,130.8z"/>
		<path fill="#3C79A1" d="M36,109c1.1,3.1,1.7,5.7-1.6,6.9l-16.2,5.7c-3.3,1.2-6.8-0.4-7.9-3.5l-5.5-15.4c-1.1-3.1,0.6-6.6,3.9-7.7
			l16.2-5.7c3.3-1.2,4.5,1.2,5.6,4.3L36,109z"/>
		<path fill="#29546F" d="M36.8,111.4c0.6,1.8,0.8,3.3-2.4,4.5l-16.2,5.7c-3.3,1.2-6.4,0.7-7-1.1L8,111.6c-0.6-1.8,1.5-4.2,4.7-5.3
			l16.2-5.7c3.3-1.2,4.1,0.2,4.7,2L36.8,111.4z"/>
		<path fill="#3C79A1" d="M88.6,107.3c0.9,2.4,0.2,4.9-1.4,5.5l-5.5,2c-1.6,0.6-3.7-0.9-4.5-3.4l-16-45.1c-0.9-2.4-0.2-4.9,1.4-5.5
			l5.5-2c1.6-0.6,3.7,0.9,4.5,3.4L88.6,107.3z"/>
		<path fill="#29546F" d="M89.4,109.3c0.5,1.3-0.5,2.9-2.1,3.5l-5.5,2c-1.6,0.6-3.3,0-3.8-1.3L69.2,89c-0.5-1.3,0.5-2.9,2.1-3.5
			l5.5-2c1.6-0.6,3.4,0,3.8,1.4L89.4,109.3z"/>
		<polygon fill="#D45454" points="9.2,120 8,119.8 2.1,103.3 2.9,102.4 		"/>
	</g>
	<g opacity="0.45">
		<path id="wifi_1_" fill-rule="evenodd" clip-rule="evenodd" fill="#FFFFFF" d="M105.5,99.8c5.2-16.1-2.4-36.2-16.8-45l2.1-6.5
			c17.6,10.7,26.8,35.3,20.5,55L105.5,99.8z M102.6,98l-5.8-3.5c3.4-10.7-1.6-24.2-11.2-30l2.1-6.5C100.5,65.8,107.2,83.7,102.6,98z
			 M93.9,92.7l-5.8-3.5c1.7-5.4-0.8-12.1-5.6-15l2.1-6.5C92.5,72.6,96.7,83.8,93.9,92.7z"/>
	</g>
</g>
</svg>
