<?xml version="1.0" encoding="utf-8"?>
<!-- Generator: Adobe Illustrator 18.1.1, SVG Export Plug-In . SVG Version: 6.00 Build 0)  -->
<svg version="1.1" id="Layer_1" xmlns="http://www.w3.org/2000/svg" xmlns:xlink="http://www.w3.org/1999/xlink" x="0px" y="0px"
	 viewBox="0 0 120 110" enable-background="new 0 0 120 110" xml:space="preserve">
<g>
	<path fill="#9C9C9C" d="M43.6,106.7V89.4c0-3.5,2.8-6.3,6.3-6.3h20.1c3.5,0,6.3,2.8,6.3,6.3v17.3H43.6z"/>
	<path fill="#E3E3E3" d="M88,108.2c0,0.3-4.8,0.5-10.8,0.5H42.8c-6,0-10.8-0.2-10.8-0.5v-1.5c0-0.3,4.8-0.5,10.8-0.5h34.4
		c5.9,0,10.8,0.2,10.8,0.5V108.2z"/>
	<path fill="#E3E3E3" d="M108.2,99.3H11.8c-2.3,0-4.2-1.9-4.2-4.2V33.8c0-2.3,1.9-4.2,4.2-4.2h96.4c2.3,0,4.2,1.9,4.2,4.2v61.3
		C112.4,97.4,110.5,99.3,108.2,99.3z"/>
	<path fill="#F2F2F2" stroke="#1F454F" stroke-width="0.4522" d="M106.7,29.6H13.3c-2.2,0-4.1,1.7-4.1,3.9v56.4h101.6V33.4
		C110.8,31.3,109,29.6,106.7,29.6z"/>
	<path fill="#B8B8B8" d="M97.8,83H27c-2.3,0-4.2-1.9-4.2-4.2V8c0-2.3,1.9-4.2,4.2-4.2h70.8c2.3,0,4.2,1.9,4.2,4.2v70.8
		C102,81.1,100.2,83,97.8,83z"/>
	<path fill="#FFFFFF" stroke="#E5E5E5" stroke-width="5.740300e-002" d="M96.2,80.5H25.4c-2.3,0-4.2-1.9-4.2-4.2V5.5
		c0-2.3,1.9-4.2,4.2-4.2h70.8c2.3,0,4.2,1.9,4.2,4.2v70.8C100.4,78.6,98.5,80.5,96.2,80.5z"/>
	<path fill="#002E3F" d="M96.2,1.3H25.4c-2.3,0-4.2,1.9-4.2,4.2v7.2h79.2V5.5C100.4,3.2,98.5,1.3,96.2,1.3z"/>
	<path fill="#D71B29" stroke="#FFFFFF" stroke-width="5.740300e-002" d="M27.3,6.9c0,0.7-0.6,1.4-1.3,1.4c-0.7,0-1.3-0.6-1.3-1.4
		c0-0.7,0.6-1.3,1.3-1.3C26.7,5.5,27.3,6.1,27.3,6.9z"/>
	<path fill="#FFD400" stroke="#FFFFFF" stroke-width="5.740300e-002" d="M31.3,6.9c0,0.7-0.6,1.4-1.4,1.4c-0.7,0-1.3-0.6-1.3-1.4
		c0-0.7,0.6-1.3,1.3-1.3C30.7,5.5,31.3,6.1,31.3,6.9z"/>
	<path fill="#BBFF00" stroke="#FFFFFF" stroke-width="5.740300e-002" d="M35.4,6.9c0,0.7-0.6,1.4-1.3,1.4c-0.7,0-1.3-0.6-1.3-1.4
		c0-0.7,0.6-1.3,1.3-1.3C34.8,5.5,35.4,6.1,35.4,6.9z"/>
	<path fill="none" stroke="#FFFFFF" stroke-width="0.3595" d="M51.4,6.9h18.7H51.4z"/>
	<rect x="25.6" y="19.1" fill="#769FA5" width="21" height="21"/>
	<rect x="50.8" y="19.1" fill="#DC7A61" width="21" height="21"/>
	<rect x="75.9" y="19.1" fill="#002E3F" width="21" height="21"/>
	<rect x="25.6" y="35" fill="#808080" width="21" height="5.1"/>
	<rect x="50.8" y="35" fill="#808080" width="21" height="5.1"/>
	<rect x="75.9" y="35" fill="#808080" width="21" height="5.1"/>
	<path fill="none" stroke="#D9D9D9" stroke-width="0.1743" d="M25.6,49.9h71.3H25.6z"/>
	<rect x="24.6" y="59.7" fill="#D9D9D9" width="72.3" height="12.8"/>
	<path fill="none" stroke="#FFFFFF" stroke-width="0.287" d="M45.9,66.1h29.8H45.9z"/>
	<path fill="none" stroke="#FFFFFF" stroke-width="0.1722" d="M31.5,37.5h9.1H31.5z"/>
	<path fill="none" stroke="#FFFFFF" stroke-width="0.1722" d="M56.7,37.5h9.2H56.7z"/>
	<path fill="none" stroke="#FFFFFF" stroke-width="0.1722" d="M81.8,37.5H91H81.8z"/>
	<path fill="#EBEBEB" d="M63.3,28.7c0,1.1-0.9,2-2,2c-1.1,0-2-0.9-2-2c0-1.1,0.9-2,2-2C62.4,26.7,63.3,27.6,63.3,28.7z"/>
	<path fill="#EBEBEB" d="M38.1,28.7c0,1.1-0.9,2-2,2c-1.1,0-2-0.9-2-2c0-1.1,0.9-2,2-2C37.2,26.7,38.1,27.6,38.1,28.7z"/>
	<path fill="#EBEBEB" d="M88.5,28.7c0,1.1-0.9,2-2,2c-1.1,0-2-0.9-2-2c0-1.1,0.9-2,2-2C87.5,26.7,88.5,27.6,88.5,28.7z"/>
</g>
</svg>
