<?xml version="1.0" encoding="utf-8"?>
<!-- Generator: Adobe Illustrator 18.1.1, SVG Export Plug-In . SVG Version: 6.00 Build 0)  -->
<svg version="1.1" id="Layer_1" xmlns="http://www.w3.org/2000/svg" xmlns:xlink="http://www.w3.org/1999/xlink" x="0px" y="0px"
	 viewBox="0 0 60 60" enable-background="new 0 0 60 60" xml:space="preserve">
<g>
	<path fill="currentColor" d="M30,0.2C18.4,0.2,9,9.6,9,21.1c0,3.1,0.7,6.2,2,8.9c6.3,14.4,18.1,28.5,18.2,28.6l0.8,0.9l0.8-0.9
		C30.9,58.5,42.7,44.4,49,30c1.4-2.8,2-5.9,2-8.9C51,9.6,41.6,0.2,30,0.2z M47.1,29.2c-5.2,12-14.4,23.9-17.1,27.2
		c-2.7-3.3-11.9-15.2-17.2-27.2c-1.2-2.5-1.8-5.2-1.8-8.1c0-10.4,8.5-18.9,19-18.9c10.5,0,19,8.5,19,18.9
		C49,23.9,48.4,26.6,47.1,29.2z"/>
	<path fill="currentColor" d="M30,9.8c-6.1,0-11,4.9-11,11c0,6.1,4.9,11,11,11c6.1,0,11-4.9,11-11C41,14.8,36.1,9.8,30,9.8z M30,29.8
		c-5,0-9-4-9-9c0-5,4-9,9-9c5,0,9,4,9,9C39,25.8,35,29.8,30,29.8z"/>
</g>
</svg>
