<?xml version="1.0" encoding="utf-8"?>
<!-- Generator: Adobe Illustrator 18.1.1, SVG Export Plug-In . SVG Version: 6.00 Build 0)  -->
<svg version="1.1" id="Layer_1" xmlns="http://www.w3.org/2000/svg" xmlns:xlink="http://www.w3.org/1999/xlink" x="0px" y="0px"
	 viewBox="0 0 6 13" enable-background="new 0 0 6 13" xml:space="preserve">
<path fill="currentColor" d="M5.9,12.6c-0.1,0.2-0.3,0.2-0.5,0.2l-2.3,0.1c-0.1,0-0.2,0-0.4,0c-0.1,0-0.2-0.1-0.3-0.1c0,0,0,0-0.1,0
	c0,0-0.1-0.1-0.1-0.1c-0.1-0.1-0.3-0.3-0.5-0.5c-0.2-0.3-0.5-0.6-0.7-1.1c-0.2-0.5-0.5-1.1-0.7-1.8C0.2,8.5,0.1,7.7,0.1,6.7
	C0,6,0,5.3,0.1,4.7c0.1-0.6,0.2-1.1,0.3-1.6c0.1-0.5,0.3-0.9,0.4-1.2C0.9,1.6,1,1.3,1.2,1.1c0.1-0.2,0.3-0.4,0.4-0.5
	c0.1-0.1,0.2-0.2,0.2-0.2C1.8,0.4,1.9,0.3,2,0.3c0.1,0,0.2-0.1,0.3-0.1l2.3-0.1c0.2,0,0.3,0,0.4,0.1c0.1,0.1,0.1,0.1,0.1,0.2
	c0,0.1,0,0.2,0,0.3L4.6,3.3c0,0.1-0.1,0.3-0.2,0.3C4.2,3.8,4.1,3.8,3.9,3.8l-0.8,0c0,0-0.1,0-0.1,0c0,0-0.1,0-0.1,0.1
	C2.8,4.1,2.7,4.3,2.7,4.5C2.6,4.7,2.6,5,2.5,5.3c0,0.3,0,0.7,0,1.2c0,0.5,0.1,0.9,0.2,1.2c0.1,0.3,0.2,0.6,0.2,0.8
	C3,8.8,3.1,8.9,3.1,9l0.1,0.1c0,0,0,0,0.1,0c0,0,0.1,0,0.1,0l1-0.1c0.2,0,0.4,0.1,0.5,0.2C5,9.4,5.1,9.5,5.1,9.6l0,0l0.8,2.5
	C6,12.3,6,12.4,5.9,12.6z"/>
</svg>
