<?xml version="1.0" encoding="utf-8"?>
<!-- Generator: Adobe Illustrator 18.1.1, SVG Export Plug-In . SVG Version: 6.00 Build 0)  -->
<svg version="1.1" id="Layer_1" xmlns="http://www.w3.org/2000/svg" xmlns:xlink="http://www.w3.org/1999/xlink" x="0px" y="0px"
	 viewBox="0 0 175 105" enable-background="new 0 0 175 105" xml:space="preserve">
<g>
	<g>
		<path fill="#828282" d="M50.9,91V71.2c0-4,3.2-7.2,7.2-7.2h23.1c4,0,7.2,3.2,7.2,7.2V91H50.9z"/>
		<path fill="#E3E3E3" d="M101.9,92.7c0,0.3-5.5,0.6-12.4,0.6H49.9c-6.8,0-12.4-0.3-12.4-0.6V91c0-0.3,5.5-0.6,12.4-0.6h39.6
			c6.8,0,12.4,0.3,12.4,0.6V92.7z"/>
		<path fill="#E3E3E3" d="M125.1,82.5H14.3c-2.7,0-4.8-2.2-4.8-4.8V7.2c0-2.7,2.2-4.8,4.8-4.8h110.7c2.7,0,4.8,2.2,4.8,4.8v70.5
			C129.9,80.3,127.7,82.5,125.1,82.5z"/>
		<g>
			<path fill="#FFFFFF" d="M123.4,2.4H16c-2.6,0-4.7,2-4.7,4.4v64.8h116.8V6.8C128.1,4.4,126,2.4,123.4,2.4z"/>
			<g>
				<path fill="#09444D" d="M130,73.5H9.4V6.8c0-3.5,2.9-6.3,6.6-6.3h107.4c3.6,0,6.6,2.8,6.6,6.3V73.5z M13.2,69.7h112.9V6.8
					c0-1.4-1.2-2.5-2.8-2.5H16c-1.5,0-2.8,1.1-2.8,2.5V69.7z"/>
			</g>
		</g>
		<g>
			<rect x="20.2" y="32.4" fill="#FFB700" width="9.9" height="37.2"/>
			<rect x="35" y="47.8" fill="#FFB700" width="9.9" height="21.8"/>
			<rect x="49.7" y="37" fill="#FFB700" width="9.9" height="32.6"/>
			<rect x="64.5" y="32.4" fill="#FFB700" width="9.9" height="37.2"/>
			<rect x="79.2" y="44.1" fill="#FFB700" width="9.9" height="25.5"/>
			<rect x="94" y="27.8" fill="#FFB700" width="9.9" height="41.8"/>
			<rect x="108.7" y="23.7" fill="#FFB700" width="9.9" height="45.8"/>
			<rect x="55.3" y="10.3" fill="#FFB700" width="9.1" height="2.1"/>
			<rect x="20.6" y="10.3" fill="#FFB700" width="28.9" height="2.1"/>
			<g opacity="0.32">
				<polygon fill="#D71B29" points="14.7,71 11.8,68.1 34.5,45.3 54.7,54.5 78.9,41.9 98.5,46.4 124.5,27.2 127,30.6 99.4,50.9 
					79.5,46.3 54.8,59.1 35.4,50.3 				"/>
			</g>
			<path fill="none" stroke="#BAB9B9" stroke-width="0.1905" d="M20.6,18.9h29.1H20.6z"/>
			<path fill="none" stroke="#BAB9B9" stroke-width="0.1905" d="M25.4,24.1h29.5H25.4z"/>
			<path fill="none" stroke="#BAB9B9" stroke-width="0.1905" d="M58.6,24.1h7.7H58.6z"/>
			<path fill="none" stroke="#BAB9B9" stroke-width="0.1905" d="M55.3,18.9h17.2H55.3z"/>
			<path fill="#FFB700" d="M96.6,12.4c0,1.4-1.2,2.6-2.6,2.6c-1.4,0-2.6-1.2-2.6-2.6s1.2-2.6,2.6-2.6C95.4,9.8,96.6,10.9,96.6,12.4z
				"/>
			<circle fill="#D74B56" cx="35.2" cy="48.7" r="3.5"/>
			<circle fill="#D74B56" cx="79.2" cy="44.1" r="3.5"/>
			<circle fill="#D74B56" cx="118.6" cy="33.4" r="3.5"/>
			<path fill="#002E3F" d="M106.9,12.4c0,1.4-1.2,2.6-2.6,2.6c-1.4,0-2.6-1.2-2.6-2.6s1.2-2.6,2.6-2.6
				C105.8,9.8,106.9,10.9,106.9,12.4z"/>
			<circle fill="#FFB700" cx="114.2" cy="12.4" r="2.6"/>
		</g>
	</g>
	<g>
		<path fill="#083940" d="M160.4,104.5h-41.7c-2.9,0-5.2-2.3-5.2-5.2V43.8c0-2.9,2.3-5.2,5.2-5.2h41.7c2.9,0,5.2,2.3,5.2,5.2v55.5
			C165.6,102.2,163.2,104.5,160.4,104.5z"/>
		<rect x="119.5" y="45.6" fill="#FFB700" width="40.1" height="52"/>
		<path fill="#FFF1CC" d="M141.3,101.1c0,1-0.8,1.8-1.8,1.8c-1,0-1.8-0.8-1.8-1.8c0-1,0.8-1.8,1.8-1.8
			C140.5,99.3,141.3,100.1,141.3,101.1z"/>
		<path fill="#FFF1CC" d="M145.7,42.2c0,0.4-0.4,0.8-0.9,0.8h-10.5c-0.5,0-0.9-0.4-0.9-0.8l0,0c0-0.4,0.4-0.8,0.9-0.8h10.5
			C145.3,41.4,145.7,41.8,145.7,42.2L145.7,42.2z"/>
		<g>
			<path fill="#002E3F" d="M156.6,84.2c0,0-0.4,0-0.9,0c-0.5,0-0.6-0.2-0.1-0.5l0.8-0.5c0.2-0.1,0.3-0.4,0.2-0.6l-0.8-1.3
				c-0.1-0.2-0.4-0.3-0.6-0.2c0,0-0.3,0.2-0.8,0.4c-0.4,0.3-0.6,0.1-0.3-0.3l0.5-0.8c0.1-0.2,0.1-0.5-0.2-0.6l-1.3-0.8
				c-0.2-0.1-0.5-0.1-0.6,0.2c0,0-0.2,0.3-0.5,0.8c-0.3,0.4-0.4,0.4-0.4-0.1v-0.9c0-0.1,0-0.2-0.1-0.2c-0.1-0.1-0.2-0.2-0.4-0.2
				h-1.5c-0.2,0-0.4,0.2-0.4,0.4c0,0,0,0.4,0,0.9c0,0.5-0.2,0.6-0.5,0.1l-0.5-0.8c-0.1-0.2-0.4-0.3-0.6-0.2l-1.3,0.8
				c-0.2,0.1-0.3,0.4-0.2,0.6c0,0,0.2,0.4,0.4,0.8c0.2,0.4,0.1,0.6-0.3,0.3l-0.8-0.4c-0.2-0.1-0.5,0-0.6,0.2l-0.8,1.3
				c-0.1,0.2,0,0.5,0.2,0.6c0,0,0.3,0.2,0.8,0.5c0.4,0.3,0.4,0.5-0.1,0.5H144c-0.2,0-0.4,0.2-0.4,0.4v1.5c0,0.2,0.2,0.4,0.4,0.4
				c0,0,0.4,0,0.9,0s0.6,0.2,0.1,0.5l-0.8,0.5c-0.2,0.1-0.3,0.4-0.2,0.6l0.8,1.3c0.1,0.2,0.4,0.3,0.6,0.2c0,0,0.3-0.2,0.8-0.5
				c0.4-0.2,0.6-0.1,0.3,0.3l-0.4,0.8c-0.1,0.2-0.1,0.5,0.2,0.6l1.3,0.8c0.2,0.1,0.5,0.1,0.6-0.2c0,0,0.2-0.4,0.5-0.8
				c0.2-0.4,0.5-0.4,0.5,0.1v0.9c0,0.2,0.1,0.3,0.3,0.4c0,0,0.1,0,0.2,0h1.5c0.2,0,0.4-0.2,0.4-0.4c0,0,0-0.4,0-0.9s0.2-0.6,0.4-0.1
				l0.5,0.8c0.1,0.2,0.4,0.3,0.6,0.2l1.3-0.8c0.2-0.1,0.3-0.4,0.2-0.6c0,0-0.2-0.3-0.5-0.8c-0.2-0.4-0.1-0.6,0.3-0.3l0.8,0.5
				c0.2,0.1,0.5,0,0.6-0.2l0.8-1.3c0.1-0.2,0-0.5-0.2-0.6c0,0-0.3-0.2-0.8-0.5c-0.4-0.2-0.4-0.5,0.1-0.5h0.9c0.2,0,0.4-0.2,0.4-0.4
				v-1.5C157.1,84.4,156.9,84.2,156.6,84.2z M150.3,88.4c-1.7,0-3-1.4-3-3c0-1.7,1.4-3,3-3c1.7,0,3,1.4,3,3
				C153.4,87.1,152,88.4,150.3,88.4z"/>
			<path fill="#D71B29" d="M142.9,75.7c0,0-0.6,0-1.4,0c-0.8,0-0.9-0.3-0.2-0.7l1.3-0.7c0.3-0.2,0.4-0.6,0.3-1l-1.2-2.1
				c-0.2-0.3-0.6-0.5-1-0.3c0,0-0.6,0.3-1.2,0.7c-0.7,0.4-0.9,0.2-0.5-0.5l0.7-1.2c0.2-0.3,0.1-0.8-0.3-1l-2.1-1.2
				c-0.3-0.2-0.8-0.1-1,0.3c0,0-0.3,0.6-0.7,1.3c-0.4,0.7-0.7,0.6-0.7-0.2v-1.4c0-0.1,0-0.3-0.1-0.4c-0.1-0.2-0.3-0.3-0.6-0.3h-2.5
				c-0.4,0-0.7,0.3-0.7,0.7c0,0,0,0.6,0,1.4c0,0.8-0.3,0.9-0.7,0.2l-0.7-1.3c-0.2-0.3-0.6-0.5-1-0.3l-2.1,1.2
				c-0.3,0.2-0.5,0.6-0.3,1c0,0,0.3,0.6,0.7,1.2c0.4,0.7,0.2,0.9-0.5,0.5l-1.3-0.7c-0.3-0.2-0.8-0.1-1,0.3l-1.2,2.1
				c-0.2,0.3-0.1,0.8,0.3,1c0,0,0.6,0.3,1.3,0.7c0.7,0.4,0.6,0.7-0.2,0.7h-1.4c-0.4,0-0.7,0.3-0.7,0.7v2.5c0,0.4,0.3,0.7,0.7,0.7
				c0,0,0.6,0,1.4,0c0.8,0,0.9,0.3,0.2,0.7l-1.3,0.7c-0.3,0.2-0.4,0.6-0.3,1l1.2,2.1c0.2,0.3,0.6,0.5,1,0.3c0,0,0.6-0.3,1.3-0.7
				c0.7-0.4,0.9-0.2,0.5,0.5l-0.7,1.3c-0.2,0.3-0.1,0.8,0.3,1l2.1,1.2c0.3,0.2,0.8,0.1,1-0.3c0,0,0.3-0.6,0.7-1.3
				c0.4-0.7,0.7-0.6,0.7,0.2v1.4c0,0.3,0.2,0.6,0.5,0.7c0.1,0,0.2,0,0.2,0h2.5c0.4,0,0.7-0.3,0.7-0.7c0,0,0-0.6,0-1.4
				c0-0.8,0.3-0.9,0.7-0.2l0.7,1.3c0.2,0.3,0.6,0.5,1,0.3l2.1-1.2c0.3-0.2,0.4-0.6,0.3-1c0,0-0.3-0.6-0.7-1.3
				c-0.4-0.7-0.2-0.9,0.5-0.5l1.2,0.7c0.3,0.2,0.8,0.1,1-0.3l1.2-2.1c0.2-0.3,0.1-0.8-0.3-1c0,0-0.6-0.3-1.3-0.7
				c-0.7-0.4-0.6-0.7,0.2-0.7h1.4c0.4,0,0.7-0.3,0.7-0.7v-2.5C143.6,76,143.3,75.7,142.9,75.7z M132.8,82.5c-2.7,0-4.9-2.2-4.9-4.9
				s2.2-4.9,4.9-4.9c2.7,0,4.9,2.2,4.9,4.9S135.5,82.5,132.8,82.5z"/>
		</g>
		<rect x="129.5" y="50.7" fill="#FFFFFF" width="21.9" height="1.6"/>
		<rect x="122.7" y="55.9" fill="#FFE7AB" width="10.1" height="1.6"/>
		<rect x="122.7" y="60.6" fill="#FFE7AB" width="18.7" height="1.6"/>
		<rect x="143.5" y="60.6" fill="#FFE7AB" width="5.4" height="1.6"/>
		<rect x="134.7" y="55.9" fill="#FFE7AB" width="5" height="1.6"/>
		<rect x="141.4" y="55.9" fill="#FFE7AB" width="7.5" height="1.6"/>
	</g>
	<g>
		<path fill="none" stroke="#FFFFFF" stroke-width="0.5632" d="M126,61.3c-7.2-0.6-13.6,4.8-14.2,12c-0.6,7.2,4.8,13.6,12,14.1
			c7.2,0.6,13.6-4.8,14.2-12C138.6,68.2,133.2,61.9,126,61.3z"/>
		<path fill="none" stroke="#002E3F" stroke-width="0.1994" d="M126,61.3c-7.2-0.6-13.6,4.8-14.2,12c-0.6,7.2,4.8,13.6,12,14.1
			c7.2,0.6,13.6-4.8,14.2-12C138.6,68.2,133.2,61.9,126,61.3z"/>
		<path opacity="0.61" fill="#769FA5" d="M125.8,62.7c-6.4-0.5-12.1,4.3-12.6,10.7c-0.5,6.4,4.3,12.1,10.7,12.6
			c6.4,0.5,12.1-4.3,12.6-10.7C137.1,68.9,132.3,63.3,125.8,62.7z"/>
		<path fill="#FFFFFF" d="M107,85.9c-0.6,0.5-0.5,1.8,0.4,2.8l0,0c0.8,1,2,1.4,2.7,0.8l6.2-5.3c0.6-0.5,0.5-1.8-0.4-2.8l0,0
			c-0.8-1-2-1.3-2.7-0.8L107,85.9z"/>
		<path fill="#2D2D2D" d="M91.3,97.8c-1.2,1-1.2,3,0,4.5l0,0c1.2,1.4,3.2,1.8,4.4,0.7L107.6,93c1.2-1,1.2-3,0-4.5l0,0
			c-1.2-1.4-3.2-1.8-4.4-0.7L91.3,97.8z"/>
		<path fill="none" stroke="#FFB700" stroke-width="5.585400e-002" d="M107.6,88.5l7-6L107.6,88.5z"/>
		<path opacity="0.56" fill="#FFFFFF" d="M91.4,100.1c-0.2-0.3,2.7-3.1,6.6-6.3c3.9-3.2,7.2-5.5,7.4-5.2c0.2,0.3-2.7,3.1-6.6,6.3
			C94.9,98,91.6,100.4,91.4,100.1z"/>
	</g>
</g>
</svg>
