<?xml version="1.0" encoding="utf-8"?>
<!-- Generator: Adobe Illustrator 18.1.1, SVG Export Plug-In . SVG Version: 6.00 Build 0)  -->
<svg version="1.1" id="Layer_1" xmlns="http://www.w3.org/2000/svg" xmlns:xlink="http://www.w3.org/1999/xlink" x="0px" y="0px"
	 viewBox="0 0 60 60" enable-background="new 0 0 60 60" xml:space="preserve">
<g>
	<path fill="currentColor" d="M30,0C13.5,0,0,13.5,0,30s13.5,30,30,30s30-13.5,30-30S46.5,0,30,0z M30,58C14.6,58,2,45.4,2,30
		S14.6,2,30,2s28,12.6,28,28S45.4,58,30,58z"/>
	<path fill="currentColor" d="M31,26.1V6c0-0.6-0.4-1-1-1c-0.6,0-1,0.4-1,1v20.1c-1.7,0.4-3,2-3,3.9c0,0.9,0.3,1.7,0.7,2.3l-8.5,10
		c-0.4,0.4-0.3,1.1,0.1,1.4c0.2,0.2,0.4,0.2,0.6,0.2c0.3,0,0.6-0.1,0.8-0.4l8.5-10.1c0.5,0.3,1.1,0.4,1.7,0.4c2.2,0,4-1.8,4-4
		C34,28.1,32.7,26.6,31,26.1z"/>
</g>
</svg>
