<?xml version="1.0" encoding="utf-8"?>
<!-- Generator: Adobe Illustrator 18.1.1, SVG Export Plug-In . SVG Version: 6.00 Build 0)  -->
<svg version="1.1" id="Layer_1" xmlns="http://www.w3.org/2000/svg" xmlns:xlink="http://www.w3.org/1999/xlink" x="0px" y="0px"
	 viewBox="0 0 100 100" enable-background="new 0 0 100 100" xml:space="preserve">
<path fill-rule="evenodd" clip-rule="evenodd" fill="currentColor" d="M19.9,0.4h60.3c10.7,0,19.4,8.7,19.4,19.4v60.3
	c0,10.7-8.7,19.4-19.4,19.4H19.9c-10.7,0-19.4-8.7-19.4-19.4V19.9C0.4,9.2,9.2,0.4,19.9,0.4L19.9,0.4z M75.2,61.2c0-3.8-1-6.7-3.1-9
	c-2.1-2.2-4.8-3.7-8.2-4.4v-0.3c2.4-1,4.2-2.5,5.6-4.7c1.4-2.1,2-4.5,2-7.2c0-2.3-0.5-4.4-1.5-6.2c-1-1.8-2.5-3.2-4.4-4.3
	c-1.8-1-3.8-1.6-5.9-1.9c-2.1-0.3-5.2-0.5-9.2-0.5H31v55.3h22.2c3.8,0,7-0.3,9.5-1c2.5-0.7,4.8-1.9,6.9-3.5c1.8-1.4,3.2-3.1,4.2-5.2
	C74.7,66.4,75.2,63.9,75.2,61.2L75.2,61.2z M57.4,38.5c0-0.9-0.2-1.8-0.7-2.8c-0.5-0.9-1.2-1.6-2.1-2c-0.9-0.4-2-0.6-3.2-0.7
	c-1.3,0-3.1-0.1-5.6-0.1h-1v11.7h1.8c2.4,0,4,0,5-0.1c1,0,1.9-0.3,3-0.8c1.1-0.5,1.9-1.2,2.3-2.2C57.2,40.7,57.4,39.7,57.4,38.5
	L57.4,38.5z M60.9,60.9c0-1.7-0.3-3-1-4c-0.7-1-1.7-1.7-3.1-2.2c-0.8-0.3-2-0.5-3.5-0.5c-1.5,0-3.5,0-5.9,0h-2.6V68h0.7
	c3.6,0,6.1,0,7.5-0.1c1.4-0.1,2.8-0.4,4.2-1c1.3-0.5,2.2-1.3,2.8-2.4C60.6,63.5,60.9,62.3,60.9,60.9z"/>
</svg>
