<?xml version="1.0" encoding="utf-8"?>
<!-- Generator: Adobe Illustrator 18.1.1, SVG Export Plug-In . SVG Version: 6.00 Build 0)  -->
<svg version="1.1" id="Layer_1" xmlns="http://www.w3.org/2000/svg" xmlns:xlink="http://www.w3.org/1999/xlink" x="0px" y="0px"
	 viewBox="0 0 22 22" enable-background="new 0 0 22 22" xml:space="preserve">
<path fill="currentColor" d="M6.5,8.9L5,10.5l4.9,4.9L20.8,4.5l-1.5-1.5l-9.4,9.4L6.5,8.9z M19.7,11c0,4.8-3.9,8.7-8.7,8.7
	S2.3,15.8,2.3,11c0-4.8,3.9-8.7,8.7-8.7c0.9,0,1.6,0.1,2.4,0.3l1.7-1.7c-1.3-0.4-2.7-0.8-4.1-0.8C5,0.1,0.1,5,0.1,11
	C0.1,17,5,21.9,11,21.9S21.9,17,21.9,11H19.7z"/>
</svg>
