<svg xmlns="http://www.w3.org/2000/svg" viewBox="0 0 120 110"><path fill="#9C9C9C" d="M43.6 106.7V89.4c0-3.5 2.8-6.3 6.3-6.3H70c3.5 0 6.3 2.8 6.3 6.3v17.3H43.6z"/><path fill="#E3E3E3" d="M88 108.2c0 .3-4.8.5-10.8.5H42.8c-6 0-10.8-.2-10.8-.5v-1.5c0-.3 4.8-.5 10.8-.5h34.4c5.9 0 10.8.2 10.8.5v1.5zM108.2 99.3H11.8c-2.3 0-4.2-1.9-4.2-4.2V33.8c0-2.3 1.9-4.2 4.2-4.2h96.4c2.3 0 4.2 1.9 4.2 4.2v61.3c0 2.3-1.9 4.2-4.2 4.2z"/><path fill="#F2F2F2" stroke="#1F454F" stroke-width=".452" d="M106.7 29.6H13.3c-2.2 0-4.1 1.7-4.1 3.9v56.4h101.6V33.4c0-2.1-1.8-3.8-4.1-3.8z"/><path fill="#B8B8B8" d="M97.8 83H27c-2.3 0-4.2-1.9-4.2-4.2V8c0-2.3 1.9-4.2 4.2-4.2h70.8c2.3 0 4.2 1.9 4.2 4.2v70.8c0 2.3-1.8 4.2-4.2 4.2z"/><path fill="#FFF" stroke="#E5E5E5" stroke-width=".057" d="M96.2 80.5H25.4c-2.3 0-4.2-1.9-4.2-4.2V5.5c0-2.3 1.9-4.2 4.2-4.2h70.8c2.3 0 4.2 1.9 4.2 4.2v70.8c0 2.3-1.9 4.2-4.2 4.2z"/><path fill="#002E3F" d="M96.2 1.3H25.4c-2.3 0-4.2 1.9-4.2 4.2v7.2h79.2V5.5c0-2.3-1.9-4.2-4.2-4.2z"/><path fill="#D71B29" stroke="#FFF" stroke-width=".057" d="M27.3 6.9c0 .7-.6 1.4-1.3 1.4-.7 0-1.3-.6-1.3-1.4 0-.7.6-1.3 1.3-1.3.7-.1 1.3.5 1.3 1.3z"/><path fill="#FFD400" stroke="#FFF" stroke-width=".057" d="M31.3 6.9c0 .7-.6 1.4-1.4 1.4-.7 0-1.3-.6-1.3-1.4 0-.7.6-1.3 1.3-1.3.8-.1 1.4.5 1.4 1.3z"/><path fill="#BF0" stroke="#FFF" stroke-width=".057" d="M35.4 6.9c0 .7-.6 1.4-1.3 1.4-.7 0-1.3-.6-1.3-1.4 0-.7.6-1.3 1.3-1.3.7-.1 1.3.5 1.3 1.3z"/><path fill="none" stroke="#FFF" stroke-width=".359" d="M51.4 6.9h18.7-18.7z"/><path fill="#769FA5" d="M25.6 19.1h21v21h-21z"/><path fill="#DC7A61" d="M50.8 19.1h21v21h-21z"/><path fill="#002E3F" d="M75.9 19.1h21v21h-21z"/><path fill="gray" d="M25.6 35h21v5.1h-21zM50.8 35h21v5.1h-21zM75.9 35h21v5.1h-21z"/><path fill="none" stroke="#D9D9D9" stroke-width=".174" d="M25.6 49.9h71.3-71.3z"/><path fill="#D9D9D9" d="M24.6 59.7h72.3v12.8H24.6z"/><path fill="none" stroke="#FFF" stroke-width=".287" d="M45.9 66.1h29.8-29.8z"/><path fill="none" stroke="#FFF" stroke-width=".172" d="M31.5 37.5h9.1-9.1zM56.7 37.5h9.2-9.2zM81.8 37.5H91h-9.2z"/><path fill="#EBEBEB" d="M63.3 28.7c0 1.1-.9 2-2 2s-2-.9-2-2 .9-2 2-2 2 .9 2 2zM38.1 28.7c0 1.1-.9 2-2 2s-2-.9-2-2 .9-2 2-2 2 .9 2 2zM88.5 28.7c0 1.1-.9 2-2 2s-2-.9-2-2 .9-2 2-2c1 0 2 .9 2 2z"/></svg>