<svg xmlns="http://www.w3.org/2000/svg" viewBox="0 0 60 60"><g fill="currentColor"><path d="M30 .2C18.4.2 9 9.6 9 21.1c0 3.1.7 6.2 2 8.9 6.3 14.4 18.1 28.5 18.2 28.6l.8.9.8-.9c.1-.1 11.9-14.2 18.2-28.6 1.4-2.8 2-5.9 2-8.9C51 9.6 41.6.2 30 .2zm17.1 29c-5.2 12-14.4 23.9-17.1 27.2-2.7-3.3-11.9-15.2-17.2-27.2-1.2-2.5-1.8-5.2-1.8-8.1 0-10.4 8.5-18.9 19-18.9s19 8.5 19 18.9c0 2.8-.6 5.5-1.9 8.1z"/><path d="M30 9.8c-6.1 0-11 4.9-11 11s4.9 11 11 11 11-4.9 11-11c0-6-4.9-11-11-11zm0 20c-5 0-9-4-9-9s4-9 9-9 9 4 9 9-4 9-9 9z"/></g></svg>