<svg xmlns="http://www.w3.org/2000/svg" viewBox="0 0 6 13"><path fill="currentColor" d="M5.9 12.6c-.1.2-.3.2-.5.2l-2.3.1h-.4c-.1 0-.2-.1-.3-.1h-.1l-.1-.1-.5-.5c-.2-.3-.5-.6-.7-1.1-.2-.5-.5-1.1-.7-1.8C.2 8.5.1 7.7.1 6.7 0 6 0 5.3.1 4.7c.1-.6.2-1.1.3-1.6.1-.5.3-.9.4-1.2.1-.3.2-.6.4-.8.1-.2.3-.4.4-.5l.2-.2s.1-.1.2-.1.2-.1.3-.1L4.6.1c.2 0 .3 0 .4.1.1.1.1.1.1.2v.3l-.5 2.6c0 .1-.1.3-.2.3-.2.2-.3.2-.5.2h-.8H3s-.1 0-.1.1c-.1.2-.2.4-.2.6-.1.2-.1.5-.2.8v1.2c0 .5.1.9.2 1.2.1.3.2.6.2.8.1.3.2.4.2.5l.1.1h.2l1-.1c.2 0 .4.1.5.2.1.2.2.3.2.4l.8 2.5c.1.2.1.3 0 .5z"/></svg>