<svg xmlns="http://www.w3.org/2000/svg" viewBox="0 0 175 105"><path fill="#828282" d="M50.9 91V71.2c0-4 3.2-7.2 7.2-7.2h23.1c4 0 7.2 3.2 7.2 7.2V91H50.9z"/><path fill="#E3E3E3" d="M101.9 92.7c0 .3-5.5.6-12.4.6H49.9c-6.8 0-12.4-.3-12.4-.6V91c0-.3 5.5-.6 12.4-.6h39.6c6.8 0 12.4.3 12.4.6v1.7zM125.1 82.5H14.3c-2.7 0-4.8-2.2-4.8-4.8V7.2c0-2.7 2.2-4.8 4.8-4.8H125c2.7 0 4.8 2.2 4.8 4.8v70.5c.1 2.6-2.1 4.8-4.7 4.8z"/><path fill="#FFF" d="M123.4 2.4H16c-2.6 0-4.7 2-4.7 4.4v64.8h116.8V6.8c0-2.4-2.1-4.4-4.7-4.4z"/><path fill="#09444D" d="M130 73.5H9.4V6.8C9.4 3.3 12.3.5 16 .5h107.4c3.6 0 6.6 2.8 6.6 6.3v66.7zM13.2 69.7h112.9V6.8c0-1.4-1.2-2.5-2.8-2.5H16c-1.5 0-2.8 1.1-2.8 2.5v62.9z"/><g><path fill="#FFB700" d="M20.2 32.4h9.9v37.2h-9.9zM35 47.8h9.9v21.8H35zM49.7 37h9.9v32.6h-9.9zM64.5 32.4h9.9v37.2h-9.9zM79.2 44.1h9.9v25.5h-9.9zM94 27.8h9.9v41.8H94zM108.7 23.7h9.9v45.8h-9.9zM55.3 10.3h9.1v2.1h-9.1zM20.6 10.3h28.9v2.1H20.6z"/><path fill="#D71B29" d="M14.7 71l-2.9-2.9 22.7-22.8 20.2 9.2 24.2-12.6 19.6 4.5 26-19.2 2.5 3.4-27.6 20.3-19.9-4.6-24.7 12.8-19.4-8.8" opacity=".32"/><path fill="none" stroke="#BAB9B9" stroke-width=".191" d="M20.6 18.9h29.1-29.1zM25.4 24.1h29.5-29.5zM58.6 24.1h7.7-7.7zM55.3 18.9h17.2-17.2z"/><path fill="#FFB700" d="M96.6 12.4c0 1.4-1.2 2.6-2.6 2.6-1.4 0-2.6-1.2-2.6-2.6s1.2-2.6 2.6-2.6c1.4 0 2.6 1.1 2.6 2.6z"/><circle fill="#D74B56" cx="35.2" cy="48.7" r="3.5"/><circle fill="#D74B56" cx="79.2" cy="44.1" r="3.5"/><circle fill="#D74B56" cx="118.6" cy="33.4" r="3.5"/><path fill="#002E3F" d="M106.9 12.4c0 1.4-1.2 2.6-2.6 2.6-1.4 0-2.6-1.2-2.6-2.6s1.2-2.6 2.6-2.6c1.5 0 2.6 1.1 2.6 2.6z"/><circle fill="#FFB700" cx="114.2" cy="12.4" r="2.6"/></g><g><path fill="#083940" d="M160.4 104.5h-41.7c-2.9 0-5.2-2.3-5.2-5.2V43.8c0-2.9 2.3-5.2 5.2-5.2h41.7c2.9 0 5.2 2.3 5.2 5.2v55.5c0 2.9-2.4 5.2-5.2 5.2z"/><path fill="#FFB700" d="M119.5 45.6h40.1v52h-40.1z"/><path fill="#FFF1CC" d="M141.3 101.1c0 1-.8 1.8-1.8 1.8s-1.8-.8-1.8-1.8.8-1.8 1.8-1.8 1.8.8 1.8 1.8zM145.7 42.2c0 .4-.4.8-.9.8h-10.5c-.5 0-.9-.4-.9-.8s.4-.8.9-.8h10.5c.5 0 .9.4.9.8z"/><path fill="#002E3F" d="M156.6 84.2h-.9c-.5 0-.6-.2-.1-.5l.8-.5c.2-.1.3-.4.2-.6l-.8-1.3c-.1-.2-.4-.3-.6-.2 0 0-.3.2-.8.4-.4.3-.6.1-.3-.3l.5-.8c.1-.2.1-.5-.2-.6l-1.3-.8c-.2-.1-.5-.1-.6.2 0 0-.2.3-.5.8-.3.4-.4.4-.4-.1V79c0-.1 0-.2-.1-.2-.1-.1-.2-.2-.4-.2h-1.5c-.2 0-.4.2-.4.4v.9c0 .5-.2.6-.5.1l-.5-.8c-.1-.2-.4-.3-.6-.2l-1.3.8c-.2.1-.3.4-.2.6l.4.8c.2.4.1.6-.3.3l-.8-.4c-.2-.1-.5 0-.6.2l-.8 1.3c-.1.2 0 .5.2.6 0 0 .3.2.8.5.4.3.4.5-.1.5h-.9c-.2 0-.4.2-.4.4v1.5c0 .2.2.4.4.4h.9s.6.2.1.5l-.8.5c-.2.1-.3.4-.2.6l.8 1.3c.1.2.4.3.6.2 0 0 .3-.2.8-.5.4-.2.6-.1.3.3l-.4.8c-.1.2-.1.5.2.6l1.3.8c.2.1.5.1.6-.2 0 0 .2-.4.5-.8.2-.4.5-.4.5.1v.9c0 .2.1.3.3.4h1.7c.2 0 .4-.2.4-.4v-.9s.2-.6.4-.1l.5.8c.1.2.4.3.6.2l1.3-.8c.2-.1.3-.4.2-.6 0 0-.2-.3-.5-.8-.2-.4-.1-.6.3-.3l.8.5c.2.1.5 0 .6-.2l.8-1.3c.1-.2 0-.5-.2-.6 0 0-.3-.2-.8-.5-.4-.2-.4-.5.1-.5h.9c.2 0 .4-.2.4-.4v-1.5c.1-.2-.1-.4-.4-.4zm-6.3 4.2c-1.7 0-3-1.4-3-3 0-1.7 1.4-3 3-3 1.7 0 3 1.4 3 3 .1 1.7-1.3 3-3 3z"/><path fill="#D71B29" d="M142.9 75.7h-1.4c-.8 0-.9-.3-.2-.7l1.3-.7c.3-.2.4-.6.3-1l-1.2-2.1c-.2-.3-.6-.5-1-.3 0 0-.6.3-1.2.7-.7.4-.9.2-.5-.5l.7-1.2c.2-.3.1-.8-.3-1l-2.1-1.2c-.3-.2-.8-.1-1 .3 0 0-.3.6-.7 1.3-.4.7-.7.6-.7-.2v-1.4c0-.1 0-.3-.1-.4-.1-.2-.3-.3-.6-.3h-2.5c-.4 0-.7.3-.7.7v1.4c0 .8-.3.9-.7.2l-.7-1.3c-.2-.3-.6-.5-1-.3l-2.1 1.2c-.3.2-.5.6-.3 1 0 0 .3.6.7 1.2.4.7.2.9-.5.5l-1.3-.7c-.3-.2-.8-.1-1 .3l-1.2 2.1c-.2.3-.1.8.3 1 0 0 .6.3 1.3.7.7.4.6.7-.2.7h-1.4c-.4 0-.7.3-.7.7v2.5c0 .4.3.7.7.7h1.4c.8 0 .9.3.2.7l-1.3.7c-.3.2-.4.6-.3 1l1.2 2.1c.2.3.6.5 1 .3 0 0 .6-.3 1.3-.7.7-.4.9-.2.5.5l-.7 1.3c-.2.3-.1.8.3 1l2.1 1.2c.3.2.8.1 1-.3 0 0 .3-.6.7-1.3.4-.7.7-.6.7.2v1.4c0 .3.2.6.5.7h2.7c.4 0 .7-.3.7-.7v-1.4c0-.8.3-.9.7-.2l.7 1.3c.2.3.6.5 1 .3l2.1-1.2c.3-.2.4-.6.3-1 0 0-.3-.6-.7-1.3-.4-.7-.2-.9.5-.5l1.2.7c.3.2.8.1 1-.3l1.2-2.1c.2-.3.1-.8-.3-1 0 0-.6-.3-1.3-.7-.7-.4-.6-.7.2-.7h1.4c.4 0 .7-.3.7-.7v-2.5c0-.4-.3-.7-.7-.7zm-10.1 6.8c-2.7 0-4.9-2.2-4.9-4.9s2.2-4.9 4.9-4.9 4.9 2.2 4.9 4.9-2.2 4.9-4.9 4.9z"/><path fill="#FFF" d="M129.5 50.7h21.9v1.6h-21.9z"/><path fill="#FFE7AB" d="M122.7 55.9h10.1v1.6h-10.1zM122.7 60.6h18.7v1.6h-18.7zM143.5 60.6h5.4v1.6h-5.4zM134.7 55.9h5v1.6h-5zM141.4 55.9h7.5v1.6h-7.5z"/></g><g><path fill="none" stroke="#FFF" stroke-width=".563" d="M126 61.3c-7.2-.6-13.6 4.8-14.2 12-.6 7.2 4.8 13.6 12 14.1 7.2.6 13.6-4.8 14.2-12 .6-7.2-4.8-13.5-12-14.1z"/><path fill="none" stroke="#002E3F" stroke-width=".199" d="M126 61.3c-7.2-.6-13.6 4.8-14.2 12-.6 7.2 4.8 13.6 12 14.1 7.2.6 13.6-4.8 14.2-12 .6-7.2-4.8-13.5-12-14.1z"/><path opacity=".61" fill="#769FA5" d="M125.8 62.7c-6.4-.5-12.1 4.3-12.6 10.7-.5 6.4 4.3 12.1 10.7 12.6 6.4.5 12.1-4.3 12.6-10.7.6-6.4-4.2-12-10.7-12.6z"/><path fill="#FFF" d="M107 85.9c-.6.5-.5 1.8.4 2.8.8 1 2 1.4 2.7.8l6.2-5.3c.6-.5.5-1.8-.4-2.8-.8-1-2-1.3-2.7-.8l-6.2 5.3z"/><path fill="#2D2D2D" d="M91.3 97.8c-1.2 1-1.2 3 0 4.5 1.2 1.4 3.2 1.8 4.4.7l11.9-10c1.2-1 1.2-3 0-4.5-1.2-1.4-3.2-1.8-4.4-.7l-11.9 10z"/><path fill="none" stroke="#FFB700" stroke-width=".056" d="M107.6 88.5l7-6-7 6z"/><path opacity=".56" fill="#FFF" d="M91.4 100.1c-.2-.3 2.7-3.1 6.6-6.3 3.9-3.2 7.2-5.5 7.4-5.2.2.3-2.7 3.1-6.6 6.3-3.9 3.1-7.2 5.5-7.4 5.2z"/></g></svg>