<svg xmlns="http://www.w3.org/2000/svg" viewBox="0 0 100 100"><path fill-rule="evenodd" clip-rule="evenodd" fill="currentColor" d="M19.9.4h60.3c10.7 0 19.4 8.7 19.4 19.4v60.3c0 10.7-8.7 19.4-19.4 19.4H19.9C9.2 99.5.5 90.8.5 80.1V19.9C.4 9.2 9.2.4 19.9.4zm55.3 60.8c0-3.8-1-6.7-3.1-9-2.1-2.2-4.8-3.7-8.2-4.4v-.3c2.4-1 4.2-2.5 5.6-4.7 1.4-2.1 2-4.5 2-7.2 0-2.3-.5-4.4-1.5-6.2-1-1.8-2.5-3.2-4.4-4.3-1.8-1-3.8-1.6-5.9-1.9-2.1-.3-5.2-.5-9.2-.5H31V78h22.2c3.8 0 7-.3 9.5-1s4.8-1.9 6.9-3.5c1.8-1.4 3.2-3.1 4.2-5.2.9-1.9 1.4-4.4 1.4-7.1zM57.4 38.5c0-.9-.2-1.8-.7-2.8-.5-.9-1.2-1.6-2.1-2-.9-.4-2-.6-3.2-.7-1.3 0-3.1-.1-5.6-.1h-1v11.7h1.8c2.4 0 4 0 5-.1 1 0 1.9-.3 3-.8s1.9-1.2 2.3-2.2c.3-.8.5-1.8.5-3zm3.5 22.4c0-1.7-.3-3-1-4s-1.7-1.7-3.1-2.2c-.8-.3-2-.5-3.5-.5h-8.5V68h.7c3.6 0 6.1 0 7.5-.1 1.4-.1 2.8-.4 4.2-1 1.3-.5 2.2-1.3 2.8-2.4.6-1 .9-2.2.9-3.6z"/></svg>