<?xml version="1.0" encoding="utf-8"?>
<!-- Generator: Adobe Illustrator 18.1.1, SVG Export Plug-In . SVG Version: 6.00 Build 0)  -->
<svg version="1.1" id="Layer_1" xmlns="http://www.w3.org/2000/svg" xmlns:xlink="http://www.w3.org/1999/xlink" x="0px" y="0px"
	 viewBox="0 0 42 60" enable-background="new 0 0 42 60" xml:space="preserve">
<path fill="#0082AD" d="M21,0.2C9.4,0.2,0,9.6,0,21.1c0,3.1,0.7,6.2,2,8.9c6.3,14.4,18.1,28.5,18.2,28.6l0.8,0.9l0.8-0.9
	C21.9,58.5,33.7,44.4,40,30c1.4-2.8,2-5.9,2-9C42,9.6,32.6,0.2,21,0.2z M21,30.8c-5.5,0-10-4.5-10-10s4.5-10,10-10
	c5.5,0,10,4.5,10,10S26.5,30.8,21,30.8z"/>
</svg>
